  0
SECTION
  2
HEADER
  9
$ACADVER
  1
AC1009
  9
$INSUNITS
 70
     1
  0
ENDSEC
  0
SECTION
  2
TABLES
  0
TABLE
  2
LAYER
 70
     8
  0
LAYER
  2
0
 62
     7
 70
0
  6
CONTINUOUS
  0
LAYER
  2
1
 62
     1
 70
0
  6
CONTINUOUS
  0
LAYER
  2
2
 62
     2
 70
0
  6
CONTINUOUS
  0
LAYER
  2
3
 62
     3
 70
0
  6
CONTINUOUS
  0
LAYER
  2
4
 62
     4
 70
0
  6
CONTINUOUS
  0
LAYER
  2
5
 62
     5
 70
0
  6
CONTINUOUS
  0
LAYER
  2
6
 62
     6
 70
0
  6
CONTINUOUS
  0
LAYER
  2
7
 62
     7
 70
0
  6
CONTINUOUS
  0
ENDTAB
  0
TABLE
  2
STYLE
 70
     1
  0
STYLE
 70
     0
  2
STANDARD
  3
TXT
 40
0.00
 41
1.00
 42
1.00
 50
0.00
 71
     0
  0
ENDTAB
  0
ENDSEC
  0
SECTION
  2
BLOCKS
  0
BLOCK
  8
0
  2
EPAD
 70
0
 10
0.0
 20
0.0
  0
POLYLINE
  8
0
 66
1
 70
1
 40
0.5
 41
0.5
  0
VERTEX
  8
0
 10
-0.25
 20
0.0
 42
1.0
  0
VERTEX
  8
0
 10
0.25
 20
0.0
 42
1.0
  0
SEQEND
  8
0
  0
ENDBLK
  8
0
  0
BLOCK
  8
0
  2
RPAD
 70
0
 10
0.0
 20
0.0
  0
TRACE
  8
0
 10
-0.5
 20
-0.5
 11
-0.5
 21
0.5
 12
0.5
 22
-0.5
 13
0.5
 23
0.5
  0
ENDBLK
  8
0
  0
ENDSEC
0
SECTION
2
ENTITIES
0
POLYLINE
8
0
66
1
70
1
40
0
41
0
0
VERTEX
8
0
10
-0.397165
20
0.891142
0
VERTEX
8
0
10
-0.397165
20
0.841142
0
VERTEX
8
0
10
-0.397265
20
0.840119
0
VERTEX
8
0
10
-0.397551
20
0.839174
0
VERTEX
8
0
10
-0.398006
20
0.838324
0
VERTEX
8
0
10
-0.398611
20
0.837587
0
VERTEX
8
0
10
-0.399348
20
0.836982
0
VERTEX
8
0
10
-0.400198
20
0.836528
0
VERTEX
8
0
10
-0.401143
20
0.836241
0
VERTEX
8
0
10
-0.402165
20
0.836142
0
VERTEX
8
0
10
-0.452165
20
0.836142
0
VERTEX
8
0
10
-0.453188
20
0.836241
0
VERTEX
8
0
10
-0.454133
20
0.836528
0
VERTEX
8
0
10
-0.454983
20
0.836982
0
VERTEX
8
0
10
-0.455720
20
0.837587
0
VERTEX
8
0
10
-0.456325
20
0.838324
0
VERTEX
8
0
10
-0.456780
20
0.839174
0
VERTEX
8
0
10
-0.457066
20
0.840119
0
VERTEX
8
0
10
-0.457165
20
0.841142
0
VERTEX
8
0
10
-0.457165
20
0.891142
0
VERTEX
8
0
10
-0.457066
20
0.892164
0
VERTEX
8
0
10
-0.456780
20
0.893109
0
VERTEX
8
0
10
-0.456325
20
0.893960
0
VERTEX
8
0
10
-0.455720
20
0.894696
0
VERTEX
8
0
10
-0.454983
20
0.895301
0
VERTEX
8
0
10
-0.454133
20
0.895756
0
VERTEX
8
0
10
-0.453188
20
0.896042
0
VERTEX
8
0
10
-0.452165
20
0.896142
0
VERTEX
8
0
10
-0.402165
20
0.896142
0
VERTEX
8
0
10
-0.401143
20
0.896042
0
VERTEX
8
0
10
-0.400198
20
0.895756
0
VERTEX
8
0
10
-0.399348
20
0.895301
0
VERTEX
8
0
10
-0.398611
20
0.894696
0
VERTEX
8
0
10
-0.398006
20
0.893960
0
VERTEX
8
0
10
-0.397551
20
0.893109
0
VERTEX
8
0
10
-0.397265
20
0.892164
0
VERTEX
8
0
10
-0.397165
20
0.891142
0
SEQEND
8
0
0
INSERT
8
0
2
EPAD
10
-0.427165
20
0.766142
41
0.060000
42
0.060000
0
INSERT
8
0
2
EPAD
10
-0.427165
20
0.666142
41
0.060000
42
0.060000
0
INSERT
8
0
2
EPAD
10
-0.427165
20
0.566142
41
0.060000
42
0.060000
0
INSERT
8
0
2
EPAD
10
-0.427165
20
0.466142
41
0.060000
42
0.060000
0
INSERT
8
0
2
EPAD
10
-0.427165
20
0.366142
41
0.060000
42
0.060000
0
INSERT
8
0
2
EPAD
10
-0.427165
20
0.266142
41
0.060000
42
0.060000
0
INSERT
8
0
2
EPAD
10
-0.427165
20
0.166142
41
0.060000
42
0.060000
0
INSERT
8
0
2
EPAD
10
-0.427165
20
0.066142
41
0.060000
42
0.060000
0
INSERT
8
0
2
EPAD
10
-0.427165
20
-0.033858
41
0.060000
42
0.060000
0
INSERT
8
0
2
EPAD
10
-0.427165
20
-0.133858
41
0.060000
42
0.060000
0
INSERT
8
0
2
EPAD
10
-0.427165
20
-0.233858
41
0.060000
42
0.060000
0
INSERT
8
0
2
EPAD
10
-0.427165
20
-0.333858
41
0.060000
42
0.060000
0
INSERT
8
0
2
EPAD
10
-0.427165
20
-0.433858
41
0.060000
42
0.060000
0
INSERT
8
0
2
EPAD
10
-0.427165
20
-0.533858
41
0.060000
42
0.060000
0
INSERT
8
0
2
EPAD
10
-0.427165
20
-0.633858
41
0.060000
42
0.060000
0
INSERT
8
0
2
EPAD
10
-0.427165
20
-0.733858
41
0.060000
42
0.060000
0
INSERT
8
0
2
EPAD
10
-0.427165
20
-0.833858
41
0.060000
42
0.060000
0
INSERT
8
0
2
EPAD
10
-0.427165
20
-0.933858
41
0.060000
42
0.060000
0
INSERT
8
0
2
EPAD
10
-0.427165
20
-1.033858
41
0.060000
42
0.060000
0
INSERT
8
0
2
EPAD
10
0.172835
20
-1.033858
41
0.060000
42
0.060000
0
INSERT
8
0
2
EPAD
10
0.172835
20
-0.933858
41
0.060000
42
0.060000
0
INSERT
8
0
2
EPAD
10
0.172835
20
-0.833858
41
0.060000
42
0.060000
0
INSERT
8
0
2
EPAD
10
0.172835
20
-0.733858
41
0.060000
42
0.060000
0
INSERT
8
0
2
EPAD
10
0.172835
20
-0.633858
41
0.060000
42
0.060000
0
INSERT
8
0
2
EPAD
10
0.172835
20
-0.533858
41
0.060000
42
0.060000
0
INSERT
8
0
2
EPAD
10
0.172835
20
-0.433858
41
0.060000
42
0.060000
0
INSERT
8
0
2
EPAD
10
0.172835
20
-0.333858
41
0.060000
42
0.060000
0
INSERT
8
0
2
EPAD
10
0.172835
20
-0.233858
41
0.060000
42
0.060000
0
INSERT
8
0
2
EPAD
10
0.172835
20
-0.133858
41
0.060000
42
0.060000
0
INSERT
8
0
2
EPAD
10
0.172835
20
-0.033858
41
0.060000
42
0.060000
0
INSERT
8
0
2
EPAD
10
0.172835
20
0.066142
41
0.060000
42
0.060000
0
INSERT
8
0
2
EPAD
10
0.172835
20
0.166142
41
0.060000
42
0.060000
0
INSERT
8
0
2
EPAD
10
0.172835
20
0.266142
41
0.060000
42
0.060000
0
INSERT
8
0
2
EPAD
10
0.172835
20
0.366142
41
0.060000
42
0.060000
0
INSERT
8
0
2
EPAD
10
0.172835
20
0.466142
41
0.060000
42
0.060000
0
INSERT
8
0
2
EPAD
10
0.172835
20
0.566142
41
0.060000
42
0.060000
0
INSERT
8
0
2
EPAD
10
0.172835
20
0.666142
41
0.060000
42
0.060000
0
INSERT
8
0
2
EPAD
10
0.172835
20
0.766142
41
0.060000
42
0.060000
0
INSERT
8
0
2
EPAD
10
0.172835
20
0.866142
41
0.060000
42
0.060000
0
INSERT
8
0
2
EPAD
10
0.533465
20
0.062205
41
0.090000
42
0.090000
0
INSERT
8
0
2
EPAD
10
0.533465
20
-0.137795
41
0.090000
42
0.090000
0
INSERT
8
0
2
EPAD
10
0.419291
20
-1.082677
41
0.090000
42
0.090000
0
INSERT
8
0
2
EPAD
10
0.419291
20
-0.982677
41
0.090000
42
0.090000
0
POLYLINE
8
0
66
1
70
1
40
0
41
0
0
VERTEX
8
0
10
-0.995787
20
0.456063
0
VERTEX
8
0
10
-0.995787
20
0.536063
0
VERTEX
8
0
10
-0.995688
20
0.537085
0
VERTEX
8
0
10
-0.995402
20
0.538031
0
VERTEX
8
0
10
-0.994947
20
0.538881
0
VERTEX
8
0
10
-0.994342
20
0.539618
0
VERTEX
8
0
10
-0.993605
20
0.540222
0
VERTEX
8
0
10
-0.992755
20
0.540677
0
VERTEX
8
0
10
-0.991810
20
0.540963
0
VERTEX
8
0
10
-0.990787
20
0.541063
0
VERTEX
8
0
10
-0.910787
20
0.541063
0
VERTEX
8
0
10
-0.909765
20
0.540963
0
VERTEX
8
0
10
-0.908820
20
0.540677
0
VERTEX
8
0
10
-0.907970
20
0.540222
0
VERTEX
8
0
10
-0.907233
20
0.539618
0
VERTEX
8
0
10
-0.906628
20
0.538881
0
VERTEX
8
0
10
-0.906173
20
0.538031
0
VERTEX
8
0
10
-0.905887
20
0.537085
0
VERTEX
8
0
10
-0.905787
20
0.536063
0
VERTEX
8
0
10
-0.905787
20
0.456063
0
VERTEX
8
0
10
-0.905887
20
0.455041
0
VERTEX
8
0
10
-0.906173
20
0.454095
0
VERTEX
8
0
10
-0.906628
20
0.453245
0
VERTEX
8
0
10
-0.907233
20
0.452508
0
VERTEX
8
0
10
-0.907970
20
0.451904
0
VERTEX
8
0
10
-0.908820
20
0.451449
0
VERTEX
8
0
10
-0.909765
20
0.451163
0
VERTEX
8
0
10
-0.910787
20
0.451063
0
VERTEX
8
0
10
-0.990787
20
0.451063
0
VERTEX
8
0
10
-0.991810
20
0.451163
0
VERTEX
8
0
10
-0.992755
20
0.451449
0
VERTEX
8
0
10
-0.993605
20
0.451904
0
VERTEX
8
0
10
-0.994342
20
0.452508
0
VERTEX
8
0
10
-0.994947
20
0.453245
0
VERTEX
8
0
10
-0.995402
20
0.454095
0
VERTEX
8
0
10
-0.995688
20
0.455041
0
VERTEX
8
0
10
-0.995787
20
0.456063
0
SEQEND
8
0
0
POLYLINE
8
0
66
1
70
1
40
0
41
0
0
VERTEX
8
0
10
-0.995787
20
0.556063
0
VERTEX
8
0
10
-0.995787
20
0.636063
0
VERTEX
8
0
10
-0.995688
20
0.637085
0
VERTEX
8
0
10
-0.995402
20
0.638031
0
VERTEX
8
0
10
-0.994947
20
0.638881
0
VERTEX
8
0
10
-0.994342
20
0.639618
0
VERTEX
8
0
10
-0.993605
20
0.640222
0
VERTEX
8
0
10
-0.992755
20
0.640677
0
VERTEX
8
0
10
-0.991810
20
0.640963
0
VERTEX
8
0
10
-0.990787
20
0.641063
0
VERTEX
8
0
10
-0.910787
20
0.641063
0
VERTEX
8
0
10
-0.909765
20
0.640963
0
VERTEX
8
0
10
-0.908820
20
0.640677
0
VERTEX
8
0
10
-0.907970
20
0.640222
0
VERTEX
8
0
10
-0.907233
20
0.639618
0
VERTEX
8
0
10
-0.906628
20
0.638881
0
VERTEX
8
0
10
-0.906173
20
0.638031
0
VERTEX
8
0
10
-0.905887
20
0.637085
0
VERTEX
8
0
10
-0.905787
20
0.636063
0
VERTEX
8
0
10
-0.905787
20
0.556063
0
VERTEX
8
0
10
-0.905887
20
0.555041
0
VERTEX
8
0
10
-0.906173
20
0.554095
0
VERTEX
8
0
10
-0.906628
20
0.553245
0
VERTEX
8
0
10
-0.907233
20
0.552508
0
VERTEX
8
0
10
-0.907970
20
0.551904
0
VERTEX
8
0
10
-0.908820
20
0.551449
0
VERTEX
8
0
10
-0.909765
20
0.551163
0
VERTEX
8
0
10
-0.910787
20
0.551063
0
VERTEX
8
0
10
-0.990787
20
0.551063
0
VERTEX
8
0
10
-0.991810
20
0.551163
0
VERTEX
8
0
10
-0.992755
20
0.551449
0
VERTEX
8
0
10
-0.993605
20
0.551904
0
VERTEX
8
0
10
-0.994342
20
0.552508
0
VERTEX
8
0
10
-0.994947
20
0.553245
0
VERTEX
8
0
10
-0.995402
20
0.554095
0
VERTEX
8
0
10
-0.995688
20
0.555041
0
VERTEX
8
0
10
-0.995787
20
0.556063
0
SEQEND
8
0
0
POLYLINE
8
0
66
1
70
1
40
0
41
0
0
VERTEX
8
0
10
-0.909724
20
0.894331
0
VERTEX
8
0
10
-0.909724
20
0.814331
0
VERTEX
8
0
10
-0.909824
20
0.813308
0
VERTEX
8
0
10
-0.910110
20
0.812363
0
VERTEX
8
0
10
-0.910565
20
0.811513
0
VERTEX
8
0
10
-0.911170
20
0.810776
0
VERTEX
8
0
10
-0.911907
20
0.810171
0
VERTEX
8
0
10
-0.912757
20
0.809717
0
VERTEX
8
0
10
-0.913702
20
0.809430
0
VERTEX
8
0
10
-0.914724
20
0.809331
0
VERTEX
8
0
10
-0.994724
20
0.809331
0
VERTEX
8
0
10
-0.995747
20
0.809430
0
VERTEX
8
0
10
-0.996692
20
0.809717
0
VERTEX
8
0
10
-0.997542
20
0.810171
0
VERTEX
8
0
10
-0.998279
20
0.810776
0
VERTEX
8
0
10
-0.998884
20
0.811513
0
VERTEX
8
0
10
-0.999339
20
0.812363
0
VERTEX
8
0
10
-0.999625
20
0.813308
0
VERTEX
8
0
10
-0.999724
20
0.814331
0
VERTEX
8
0
10
-0.999724
20
0.894331
0
VERTEX
8
0
10
-0.999625
20
0.895353
0
VERTEX
8
0
10
-0.999339
20
0.896298
0
VERTEX
8
0
10
-0.998884
20
0.897149
0
VERTEX
8
0
10
-0.998279
20
0.897885
0
VERTEX
8
0
10
-0.997542
20
0.898490
0
VERTEX
8
0
10
-0.996692
20
0.898945
0
VERTEX
8
0
10
-0.995747
20
0.899231
0
VERTEX
8
0
10
-0.994724
20
0.899331
0
VERTEX
8
0
10
-0.914724
20
0.899331
0
VERTEX
8
0
10
-0.913702
20
0.899231
0
VERTEX
8
0
10
-0.912757
20
0.898945
0
VERTEX
8
0
10
-0.911907
20
0.898490
0
VERTEX
8
0
10
-0.911170
20
0.897885
0
VERTEX
8
0
10
-0.910565
20
0.897149
0
VERTEX
8
0
10
-0.910110
20
0.896298
0
VERTEX
8
0
10
-0.909824
20
0.895353
0
VERTEX
8
0
10
-0.909724
20
0.894331
0
SEQEND
8
0
0
POLYLINE
8
0
66
1
70
1
40
0
41
0
0
VERTEX
8
0
10
-0.909724
20
0.794331
0
VERTEX
8
0
10
-0.909724
20
0.714331
0
VERTEX
8
0
10
-0.909824
20
0.713308
0
VERTEX
8
0
10
-0.910110
20
0.712363
0
VERTEX
8
0
10
-0.910565
20
0.711513
0
VERTEX
8
0
10
-0.911170
20
0.710776
0
VERTEX
8
0
10
-0.911907
20
0.710171
0
VERTEX
8
0
10
-0.912757
20
0.709717
0
VERTEX
8
0
10
-0.913702
20
0.709430
0
VERTEX
8
0
10
-0.914724
20
0.709331
0
VERTEX
8
0
10
-0.994724
20
0.709331
0
VERTEX
8
0
10
-0.995747
20
0.709430
0
VERTEX
8
0
10
-0.996692
20
0.709717
0
VERTEX
8
0
10
-0.997542
20
0.710171
0
VERTEX
8
0
10
-0.998279
20
0.710776
0
VERTEX
8
0
10
-0.998884
20
0.711513
0
VERTEX
8
0
10
-0.999339
20
0.712363
0
VERTEX
8
0
10
-0.999625
20
0.713308
0
VERTEX
8
0
10
-0.999724
20
0.714331
0
VERTEX
8
0
10
-0.999724
20
0.794331
0
VERTEX
8
0
10
-0.999625
20
0.795353
0
VERTEX
8
0
10
-0.999339
20
0.796298
0
VERTEX
8
0
10
-0.998884
20
0.797149
0
VERTEX
8
0
10
-0.998279
20
0.797885
0
VERTEX
8
0
10
-0.997542
20
0.798490
0
VERTEX
8
0
10
-0.996692
20
0.798945
0
VERTEX
8
0
10
-0.995747
20
0.799231
0
VERTEX
8
0
10
-0.994724
20
0.799331
0
VERTEX
8
0
10
-0.914724
20
0.799331
0
VERTEX
8
0
10
-0.913702
20
0.799231
0
VERTEX
8
0
10
-0.912757
20
0.798945
0
VERTEX
8
0
10
-0.911907
20
0.798490
0
VERTEX
8
0
10
-0.911170
20
0.797885
0
VERTEX
8
0
10
-0.910565
20
0.797149
0
VERTEX
8
0
10
-0.910110
20
0.796298
0
VERTEX
8
0
10
-0.909824
20
0.795353
0
VERTEX
8
0
10
-0.909724
20
0.794331
0
SEQEND
8
0
0
POLYLINE
8
0
66
1
70
1
40
0
41
0
0
VERTEX
8
0
10
-0.999724
20
0.164724
0
VERTEX
8
0
10
-0.999724
20
0.244724
0
VERTEX
8
0
10
-0.999625
20
0.245747
0
VERTEX
8
0
10
-0.999339
20
0.246692
0
VERTEX
8
0
10
-0.998884
20
0.247543
0
VERTEX
8
0
10
-0.998279
20
0.248279
0
VERTEX
8
0
10
-0.997542
20
0.248884
0
VERTEX
8
0
10
-0.996692
20
0.249339
0
VERTEX
8
0
10
-0.995747
20
0.249625
0
VERTEX
8
0
10
-0.994724
20
0.249724
0
VERTEX
8
0
10
-0.914724
20
0.249724
0
VERTEX
8
0
10
-0.913702
20
0.249625
0
VERTEX
8
0
10
-0.912757
20
0.249339
0
VERTEX
8
0
10
-0.911907
20
0.248884
0
VERTEX
8
0
10
-0.911170
20
0.248279
0
VERTEX
8
0
10
-0.910565
20
0.247543
0
VERTEX
8
0
10
-0.910110
20
0.246692
0
VERTEX
8
0
10
-0.909824
20
0.245747
0
VERTEX
8
0
10
-0.909724
20
0.244724
0
VERTEX
8
0
10
-0.909724
20
0.164724
0
VERTEX
8
0
10
-0.909824
20
0.163702
0
VERTEX
8
0
10
-0.910110
20
0.162757
0
VERTEX
8
0
10
-0.910565
20
0.161906
0
VERTEX
8
0
10
-0.911170
20
0.161170
0
VERTEX
8
0
10
-0.911907
20
0.160565
0
VERTEX
8
0
10
-0.912757
20
0.160110
0
VERTEX
8
0
10
-0.913702
20
0.159824
0
VERTEX
8
0
10
-0.914724
20
0.159724
0
VERTEX
8
0
10
-0.994724
20
0.159724
0
VERTEX
8
0
10
-0.995747
20
0.159824
0
VERTEX
8
0
10
-0.996692
20
0.160110
0
VERTEX
8
0
10
-0.997542
20
0.160565
0
VERTEX
8
0
10
-0.998279
20
0.161170
0
VERTEX
8
0
10
-0.998884
20
0.161906
0
VERTEX
8
0
10
-0.999339
20
0.162757
0
VERTEX
8
0
10
-0.999625
20
0.163702
0
VERTEX
8
0
10
-0.999724
20
0.164724
0
SEQEND
8
0
0
POLYLINE
8
0
66
1
70
1
40
0
41
0
0
VERTEX
8
0
10
-0.999724
20
0.264724
0
VERTEX
8
0
10
-0.999724
20
0.344724
0
VERTEX
8
0
10
-0.999625
20
0.345747
0
VERTEX
8
0
10
-0.999339
20
0.346692
0
VERTEX
8
0
10
-0.998884
20
0.347543
0
VERTEX
8
0
10
-0.998279
20
0.348279
0
VERTEX
8
0
10
-0.997542
20
0.348884
0
VERTEX
8
0
10
-0.996692
20
0.349339
0
VERTEX
8
0
10
-0.995747
20
0.349625
0
VERTEX
8
0
10
-0.994724
20
0.349724
0
VERTEX
8
0
10
-0.914724
20
0.349724
0
VERTEX
8
0
10
-0.913702
20
0.349625
0
VERTEX
8
0
10
-0.912757
20
0.349339
0
VERTEX
8
0
10
-0.911907
20
0.348884
0
VERTEX
8
0
10
-0.911170
20
0.348279
0
VERTEX
8
0
10
-0.910565
20
0.347543
0
VERTEX
8
0
10
-0.910110
20
0.346692
0
VERTEX
8
0
10
-0.909824
20
0.345747
0
VERTEX
8
0
10
-0.909724
20
0.344724
0
VERTEX
8
0
10
-0.909724
20
0.264724
0
VERTEX
8
0
10
-0.909824
20
0.263702
0
VERTEX
8
0
10
-0.910110
20
0.262757
0
VERTEX
8
0
10
-0.910565
20
0.261906
0
VERTEX
8
0
10
-0.911170
20
0.261170
0
VERTEX
8
0
10
-0.911907
20
0.260565
0
VERTEX
8
0
10
-0.912757
20
0.260110
0
VERTEX
8
0
10
-0.913702
20
0.259824
0
VERTEX
8
0
10
-0.914724
20
0.259724
0
VERTEX
8
0
10
-0.994724
20
0.259724
0
VERTEX
8
0
10
-0.995747
20
0.259824
0
VERTEX
8
0
10
-0.996692
20
0.260110
0
VERTEX
8
0
10
-0.997542
20
0.260565
0
VERTEX
8
0
10
-0.998279
20
0.261170
0
VERTEX
8
0
10
-0.998884
20
0.261906
0
VERTEX
8
0
10
-0.999339
20
0.262757
0
VERTEX
8
0
10
-0.999625
20
0.263702
0
VERTEX
8
0
10
-0.999724
20
0.264724
0
SEQEND
8
0
0
INSERT
8
0
2
EPAD
10
0.045276
20
1.066929
41
0.065000
42
0.065000
0
INSERT
8
0
2
EPAD
10
0.045276
20
1.066929
41
0.065000
42
0.065000
0
INSERT
8
0
2
EPAD
10
-0.033465
20
1.066929
41
0.065000
42
0.065000
0
INSERT
8
0
2
EPAD
10
-0.033465
20
1.066929
41
0.065000
42
0.065000
0
INSERT
8
0
2
EPAD
10
-0.112205
20
1.066929
41
0.065000
42
0.065000
0
INSERT
8
0
2
EPAD
10
-0.112205
20
1.066929
41
0.065000
42
0.065000
0
INSERT
8
0
2
EPAD
10
-0.190945
20
1.066929
41
0.065000
42
0.065000
0
INSERT
8
0
2
EPAD
10
-0.190945
20
1.066929
41
0.065000
42
0.065000
0
INSERT
8
0
2
EPAD
10
-0.269685
20
1.066929
41
0.065000
42
0.065000
0
INSERT
8
0
2
EPAD
10
-0.269685
20
1.066929
41
0.065000
42
0.065000
0
INSERT
8
0
2
EPAD
10
1.041339
20
-1.043307
41
0.065000
42
0.065000
0
INSERT
8
0
2
EPAD
10
1.041339
20
-1.043307
41
0.065000
42
0.065000
0
INSERT
8
0
2
EPAD
10
1.041339
20
-0.964567
41
0.065000
42
0.065000
0
INSERT
8
0
2
EPAD
10
1.041339
20
-0.964567
41
0.065000
42
0.065000
0
INSERT
8
0
2
EPAD
10
0.470472
20
-0.580315
41
0.090000
42
0.090000
0
INSERT
8
0
2
EPAD
10
0.570472
20
-0.480315
41
0.090000
42
0.090000
0
INSERT
8
0
2
EPAD
10
0.470472
20
-0.380315
41
0.090000
42
0.090000
0
POLYLINE
8
0
66
1
70
1
40
0
41
0
0
VERTEX
8
0
10
0.921732
20
0.855709
0
VERTEX
8
0
10
0.921732
20
0.805709
0
VERTEX
8
0
10
0.921633
20
0.804686
0
VERTEX
8
0
10
0.921346
20
0.803741
0
VERTEX
8
0
10
0.920892
20
0.802891
0
VERTEX
8
0
10
0.920287
20
0.802154
0
VERTEX
8
0
10
0.919550
20
0.801549
0
VERTEX
8
0
10
0.918700
20
0.801094
0
VERTEX
8
0
10
0.917755
20
0.800808
0
VERTEX
8
0
10
0.916732
20
0.800709
0
VERTEX
8
0
10
0.866732
20
0.800709
0
VERTEX
8
0
10
0.865710
20
0.800808
0
VERTEX
8
0
10
0.864765
20
0.801094
0
VERTEX
8
0
10
0.863915
20
0.801549
0
VERTEX
8
0
10
0.863178
20
0.802154
0
VERTEX
8
0
10
0.862573
20
0.802891
0
VERTEX
8
0
10
0.862118
20
0.803741
0
VERTEX
8
0
10
0.861832
20
0.804686
0
VERTEX
8
0
10
0.861732
20
0.805709
0
VERTEX
8
0
10
0.861732
20
0.855709
0
VERTEX
8
0
10
0.861832
20
0.856731
0
VERTEX
8
0
10
0.862118
20
0.857676
0
VERTEX
8
0
10
0.862573
20
0.858527
0
VERTEX
8
0
10
0.863178
20
0.859263
0
VERTEX
8
0
10
0.863915
20
0.859868
0
VERTEX
8
0
10
0.864765
20
0.860323
0
VERTEX
8
0
10
0.865710
20
0.860609
0
VERTEX
8
0
10
0.866732
20
0.860709
0
VERTEX
8
0
10
0.916732
20
0.860709
0
VERTEX
8
0
10
0.917755
20
0.860609
0
VERTEX
8
0
10
0.918700
20
0.860323
0
VERTEX
8
0
10
0.919550
20
0.859868
0
VERTEX
8
0
10
0.920287
20
0.859263
0
VERTEX
8
0
10
0.920892
20
0.858527
0
VERTEX
8
0
10
0.921346
20
0.857676
0
VERTEX
8
0
10
0.921633
20
0.856731
0
VERTEX
8
0
10
0.921732
20
0.855709
0
SEQEND
8
0
0
INSERT
8
0
2
EPAD
10
0.891732
20
0.730709
41
0.060000
42
0.060000
0
INSERT
8
0
2
EPAD
10
0.891732
20
0.630709
41
0.060000
42
0.060000
0
INSERT
8
0
2
EPAD
10
0.891732
20
0.530709
41
0.060000
42
0.060000
0
INSERT
8
0
2
EPAD
10
0.891732
20
0.430709
41
0.060000
42
0.060000
0
INSERT
8
0
2
EPAD
10
0.891732
20
0.330709
41
0.060000
42
0.060000
0
INSERT
8
0
2
EPAD
10
0.891732
20
0.230709
41
0.060000
42
0.060000
0
INSERT
8
0
2
EPAD
10
0.891732
20
0.130709
41
0.060000
42
0.060000
0
INSERT
8
0
2
EPAD
10
1.191732
20
0.130709
41
0.060000
42
0.060000
0
INSERT
8
0
2
EPAD
10
1.191732
20
0.230709
41
0.060000
42
0.060000
0
INSERT
8
0
2
EPAD
10
1.191732
20
0.330709
41
0.060000
42
0.060000
0
INSERT
8
0
2
EPAD
10
1.191732
20
0.430709
41
0.060000
42
0.060000
0
INSERT
8
0
2
EPAD
10
1.191732
20
0.530709
41
0.060000
42
0.060000
0
INSERT
8
0
2
EPAD
10
1.191732
20
0.630709
41
0.060000
42
0.060000
0
INSERT
8
0
2
EPAD
10
1.191732
20
0.730709
41
0.060000
42
0.060000
0
INSERT
8
0
2
EPAD
10
1.191732
20
0.830709
41
0.060000
42
0.060000
0
INSERT
8
0
2
EPAD
10
0.726378
20
-0.842520
41
0.080000
42
0.080000
0
INSERT
8
0
2
EPAD
10
0.326378
20
-0.842520
41
0.080000
42
0.080000
0
INSERT
8
0
2
EPAD
10
-0.631890
20
0.854331
41
0.080000
42
0.080000
0
INSERT
8
0
2
EPAD
10
-0.631890
20
0.454331
41
0.080000
42
0.080000
0
INSERT
8
0
2
EPAD
10
-0.533465
20
0.127559
41
0.080000
42
0.080000
0
INSERT
8
0
2
EPAD
10
-0.533465
20
0.527559
41
0.080000
42
0.080000
0
INSERT
8
0
2
EPAD
10
-0.769685
20
0.649606
41
0.080000
42
0.080000
0
INSERT
8
0
2
EPAD
10
-0.769685
20
0.249606
41
0.080000
42
0.080000
0
INSERT
8
0
2
EPAD
10
0.860236
20
-0.746457
41
0.080000
42
0.080000
0
INSERT
8
0
2
EPAD
10
0.860236
20
-0.346457
41
0.080000
42
0.080000
0
INSERT
8
0
2
EPAD
10
0.352362
20
0.842520
41
0.080000
42
0.080000
0
INSERT
8
0
2
EPAD
10
0.752362
20
0.842520
41
0.080000
42
0.080000
0
INSERT
8
0
2
EPAD
10
0.357874
20
0.716535
41
0.080000
42
0.080000
0
INSERT
8
0
2
EPAD
10
0.757874
20
0.716535
41
0.080000
42
0.080000
0
INSERT
8
0
2
EPAD
10
0.361811
20
0.590551
41
0.080000
42
0.080000
0
INSERT
8
0
2
EPAD
10
0.761811
20
0.590551
41
0.080000
42
0.080000
0
INSERT
8
0
2
EPAD
10
0.364173
20
0.464567
41
0.080000
42
0.080000
0
INSERT
8
0
2
EPAD
10
0.764173
20
0.464567
41
0.080000
42
0.080000
0
INSERT
8
0
2
EPAD
10
0.364173
20
0.338583
41
0.080000
42
0.080000
0
INSERT
8
0
2
EPAD
10
0.764173
20
0.338583
41
0.080000
42
0.080000
0
POLYLINE
8
0
66
1
40
0.008000
41
0.008000
0
VERTEX
8
0
10
-1.301181
20
-1.279528
0
VERTEX
8
0
10
1.301181
20
-1.279528
0
VERTEX
8
0
10
1.301181
20
1.279528
0
VERTEX
8
0
10
-1.301181
20
1.279528
0
VERTEX
8
0
10
-1.301181
20
-1.279528
0
SEQEND
8
0
0
POLYLINE
8
0
66
1
40
0.000000
41
0.000000
0
VERTEX
8
0
10
-1.234567
20
-1.205039
0
VERTEX
8
0
10
-1.194567
20
-1.205039
0
VERTEX
8
0
10
-1.194567
20
-1.165039
0
VERTEX
8
0
10
-1.234567
20
-1.165039
0
VERTEX
8
0
10
-1.234567
20
-1.205039
0
SEQEND
8
0
0
POLYLINE
8
0
66
1
40
0.000000
41
0.000000
0
VERTEX
8
0
10
-1.254567
20
-1.185039
0
VERTEX
8
0
10
-1.174567
20
-1.185039
0
SEQEND
8
0
0
POLYLINE
8
0
66
1
40
0.000000
41
0.000000
0
VERTEX
8
0
10
-1.214567
20
-1.145039
0
VERTEX
8
0
10
-1.214567
20
-1.225039
0
SEQEND
8
0
0
POLYLINE
8
0
66
1
40
0.008000
41
0.008000
0
VERTEX
8
0
10
-0.127165
20
0.816142
0
VERTEX
8
0
10
-0.106791
20
0.818142
0
VERTEX
8
0
10
-0.087915
20
0.823892
0
VERTEX
8
0
10
-0.070915
20
0.833017
0
VERTEX
8
0
10
-0.056165
20
0.845142
0
VERTEX
8
0
10
-0.044040
20
0.859892
0
VERTEX
8
0
10
-0.034915
20
0.876892
0
VERTEX
8
0
10
-0.029165
20
0.895767
0
VERTEX
8
0
10
-0.027165
20
0.916142
0
SEQEND
8
0
0
POLYLINE
8
0
66
1
40
0.008000
41
0.008000
0
VERTEX
8
0
10
-0.127165
20
0.816142
0
VERTEX
8
0
10
-0.147828
20
0.818142
0
VERTEX
8
0
10
-0.166837
20
0.823892
0
VERTEX
8
0
10
-0.183855
20
0.833017
0
VERTEX
8
0
10
-0.198540
20
0.845142
0
VERTEX
8
0
10
-0.210554
20
0.859892
0
VERTEX
8
0
10
-0.219556
20
0.876892
0
VERTEX
8
0
10
-0.225206
20
0.895767
0
VERTEX
8
0
10
-0.227165
20
0.916142
0
SEQEND
8
0
0
POLYLINE
8
0
66
1
40
0.008000
41
0.008000
0
VERTEX
8
0
10
-0.027165
20
0.916142
0
VERTEX
8
0
10
0.122835
20
0.916142
0
SEQEND
8
0
0
POLYLINE
8
0
66
1
40
0.008000
41
0.008000
0
VERTEX
8
0
10
0.122835
20
-1.083858
0
VERTEX
8
0
10
-0.377165
20
-1.083858
0
SEQEND
8
0
0
POLYLINE
8
0
66
1
40
0.008000
41
0.008000
0
VERTEX
8
0
10
-0.377165
20
0.916142
0
VERTEX
8
0
10
-0.227165
20
0.916142
0
SEQEND
8
0
0
POLYLINE
8
0
66
1
40
0.008000
41
0.008000
0
VERTEX
8
0
10
0.122835
20
0.916142
0
VERTEX
8
0
10
0.122835
20
-1.083858
0
SEQEND
8
0
0
POLYLINE
8
0
66
1
40
0.008000
41
0.008000
0
VERTEX
8
0
10
-0.377165
20
0.916142
0
VERTEX
8
0
10
-0.377165
20
-1.083858
0
SEQEND
8
0
0
TEXT
8
0
10
-0.177165
20
0.926142
40
0.048000
41
1.041667
1
U1
0
POLYLINE
8
0
66
1
40
0.008000
41
0.008000
0
VERTEX
8
0
10
0.433465
20
-0.187795
0
VERTEX
8
0
10
0.433465
20
0.112205
0
VERTEX
8
0
10
0.583465
20
0.112205
0
VERTEX
8
0
10
0.583465
20
-0.187795
0
VERTEX
8
0
10
0.433465
20
-0.187795
0
SEQEND
8
0
0
POLYLINE
8
0
66
1
40
0.008000
41
0.008000
0
VERTEX
8
0
10
0.583465
20
-0.187795
0
VERTEX
8
0
10
0.683465
20
-0.237795
0
VERTEX
8
0
10
0.683465
20
0.162205
0
VERTEX
8
0
10
0.583465
20
0.112205
0
SEQEND
8
0
0
CIRCLE
8
0
10
0.533465
20
-0.137795
40
0.000000
0
CIRCLE
8
0
10
0.533465
20
-0.137795
40
0.035000
0
CIRCLE
8
0
10
0.533465
20
0.062205
40
0.035000
0
TEXT
8
0
10
0.423465
20
-0.137795
40
0.048000
41
1.041667
50
90.000000
1
BUZ3
0
CIRCLE
8
0
10
0.419291
20
-1.032677
40
0.100000
0
POLYLINE
8
0
66
1
40
0.008000
41
0.008000
0
VERTEX
8
0
10
0.369291
20
-1.107677
0
VERTEX
8
0
10
0.369291
20
-1.057677
0
SEQEND
8
0
0
POLYLINE
8
0
66
1
40
0.008000
41
0.008000
0
VERTEX
8
0
10
0.344291
20
-1.082677
0
VERTEX
8
0
10
0.394291
20
-1.082677
0
SEQEND
8
0
0
TEXT
8
0
10
0.285669
20
-1.067291
40
0.048000
41
1.041667
50
90.000000
1
C1
0
CIRCLE
8
0
10
-0.950787
20
0.546063
40
0.000000
0
CIRCLE
8
0
10
-0.950787
20
0.546063
40
0.100000
0
POLYLINE
8
0
66
1
40
0.008000
41
0.008000
0
VERTEX
8
0
10
-1.050787
20
0.421063
0
VERTEX
8
0
10
-1.050787
20
0.471063
0
SEQEND
8
0
0
POLYLINE
8
0
66
1
40
0.008000
41
0.008000
0
VERTEX
8
0
10
-1.075787
20
0.446063
0
VERTEX
8
0
10
-1.025787
20
0.446063
0
SEQEND
8
0
0
TEXT
8
0
10
-1.085787
20
0.483563
40
0.048000
41
1.041667
50
90.000000
1
D1
0
CIRCLE
8
0
10
-0.954724
20
0.804331
40
0.000000
0
CIRCLE
8
0
10
-0.954724
20
0.804331
40
0.100000
0
POLYLINE
8
0
66
1
40
0.008000
41
0.008000
0
VERTEX
8
0
10
-0.854724
20
0.929331
0
VERTEX
8
0
10
-0.854724
20
0.879331
0
SEQEND
8
0
0
POLYLINE
8
0
66
1
40
0.008000
41
0.008000
0
VERTEX
8
0
10
-0.829724
20
0.904331
0
VERTEX
8
0
10
-0.879724
20
0.904331
0
SEQEND
8
0
0
TEXT
8
0
10
-0.771724
20
0.766831
40
0.048000
41
1.041667
50
90.000000
1
D2
0
CIRCLE
8
0
10
-0.954724
20
0.254724
40
0.000000
0
CIRCLE
8
0
10
-0.954724
20
0.254724
40
0.100000
0
POLYLINE
8
0
66
1
40
0.008000
41
0.008000
0
VERTEX
8
0
10
-1.054724
20
0.129724
0
VERTEX
8
0
10
-1.054724
20
0.179724
0
SEQEND
8
0
0
POLYLINE
8
0
66
1
40
0.008000
41
0.008000
0
VERTEX
8
0
10
-1.079724
20
0.154724
0
VERTEX
8
0
10
-1.029724
20
0.154724
0
SEQEND
8
0
0
TEXT
8
0
10
-1.089724
20
0.192224
40
0.048000
41
1.041667
50
90.000000
1
D3
0
CIRCLE
8
0
10
0.045276
20
0.991929
40
0.015000
0
POLYLINE
8
0
66
1
40
0.006000
41
0.006000
0
VERTEX
8
0
10
-0.297185
20
1.019929
0
VERTEX
8
0
10
0.072776
20
1.019929
0
VERTEX
8
0
10
0.072776
20
1.037061
0
SEQEND
8
0
0
POLYLINE
8
0
66
1
40
0.006000
41
0.006000
0
VERTEX
8
0
10
0.072776
20
1.113929
0
VERTEX
8
0
10
-0.297185
20
1.113929
0
VERTEX
8
0
10
-0.297185
20
1.096797
0
SEQEND
8
0
0
POLYLINE
8
0
66
1
40
0.006000
41
0.006000
0
VERTEX
8
0
10
-0.297185
20
1.037061
0
VERTEX
8
0
10
-0.297185
20
1.019929
0
SEQEND
8
0
0
POLYLINE
8
0
66
1
40
0.006000
41
0.006000
0
VERTEX
8
0
10
0.072776
20
1.096797
0
VERTEX
8
0
10
0.072776
20
1.113929
0
SEQEND
8
0
0
TEXT
8
0
10
-0.162205
20
1.122929
40
0.048000
41
1.041667
1
J1
0
CIRCLE
8
0
10
1.116339
20
-1.043307
40
0.015000
0
POLYLINE
8
0
66
1
40
0.006000
41
0.006000
0
VERTEX
8
0
10
1.080968
20
-1.101937
0
VERTEX
8
0
10
1.080968
20
-1.052129
0
SEQEND
8
0
0
POLYLINE
8
0
66
1
40
0.006000
41
0.006000
0
VERTEX
8
0
10
1.080968
20
-0.905937
0
VERTEX
8
0
10
1.001969
20
-0.905937
0
VERTEX
8
0
10
1.001969
20
-0.954649
0
SEQEND
8
0
0
POLYLINE
8
0
66
1
40
0.006000
41
0.006000
0
VERTEX
8
0
10
1.001969
20
-1.101937
0
VERTEX
8
0
10
1.080968
20
-1.101937
0
SEQEND
8
0
0
POLYLINE
8
0
66
1
40
0.006000
41
0.006000
0
VERTEX
8
0
10
1.080968
20
-0.955745
0
VERTEX
8
0
10
1.080968
20
-0.905937
0
SEQEND
8
0
0
POLYLINE
8
0
66
1
40
0.006000
41
0.006000
0
VERTEX
8
0
10
1.001969
20
-0.974485
0
VERTEX
8
0
10
1.001969
20
-1.033389
0
SEQEND
8
0
0
POLYLINE
8
0
66
1
40
0.006000
41
0.006000
0
VERTEX
8
0
10
1.001969
20
-1.053225
0
VERTEX
8
0
10
1.001969
20
-1.101937
0
SEQEND
8
0
0
POLYLINE
8
0
66
1
40
0.006000
41
0.006000
0
VERTEX
8
0
10
1.080968
20
-1.034485
0
VERTEX
8
0
10
1.080968
20
-0.973389
0
SEQEND
8
0
0
TEXT
8
0
10
0.992968
20
-1.053937
40
0.048000
41
1.041667
50
90.000000
1
J2
0
CIRCLE
8
0
10
0.470472
20
-0.480315
40
0.175000
0
POLYLINE
8
0
66
1
40
0.008000
41
0.008000
0
VERTEX
8
0
10
0.320472
20
-0.580315
0
VERTEX
8
0
10
0.295472
20
-0.605315
0
VERTEX
8
0
10
0.345472
20
-0.655315
0
VERTEX
8
0
10
0.370472
20
-0.630315
0
SEQEND
8
0
0
TEXT
8
0
10
0.703472
20
-0.530315
40
0.048000
41
1.041667
50
90.000000
1
Q1
0
POLYLINE
8
0
66
1
40
0.008000
41
0.008000
0
VERTEX
8
0
10
0.941732
20
0.880709
0
VERTEX
8
0
10
0.991732
20
0.880709
0
SEQEND
8
0
0
POLYLINE
8
0
66
1
40
0.008000
41
0.008000
0
VERTEX
8
0
10
1.041732
20
0.830709
0
VERTEX
8
0
10
1.051920
20
0.831668
0
VERTEX
8
0
10
1.061357
20
0.834443
0
VERTEX
8
0
10
1.069857
20
0.838883
0
VERTEX
8
0
10
1.077232
20
0.844834
0
VERTEX
8
0
10
1.083295
20
0.852144
0
VERTEX
8
0
10
1.087857
20
0.860662
0
VERTEX
8
0
10
1.090732
20
0.870234
0
VERTEX
8
0
10
1.091732
20
0.880709
0
SEQEND
8
0
0
POLYLINE
8
0
66
1
40
0.008000
41
0.008000
0
VERTEX
8
0
10
1.041732
20
0.830709
0
VERTEX
8
0
10
1.031258
20
0.831668
0
VERTEX
8
0
10
1.021685
20
0.834443
0
VERTEX
8
0
10
1.013168
20
0.838883
0
VERTEX
8
0
10
1.005857
20
0.844834
0
VERTEX
8
0
10
0.999906
20
0.852144
0
VERTEX
8
0
10
0.995467
20
0.860662
0
VERTEX
8
0
10
0.992691
20
0.870234
0
VERTEX
8
0
10
0.991732
20
0.880709
0
SEQEND
8
0
0
POLYLINE
8
0
66
1
40
0.008000
41
0.008000
0
VERTEX
8
0
10
1.091732
20
0.880709
0
VERTEX
8
0
10
1.141732
20
0.880709
0
SEQEND
8
0
0
POLYLINE
8
0
66
1
40
0.008000
41
0.008000
0
VERTEX
8
0
10
0.941732
20
0.080709
0
VERTEX
8
0
10
1.141732
20
0.080709
0
SEQEND
8
0
0
POLYLINE
8
0
66
1
40
0.008000
41
0.008000
0
VERTEX
8
0
10
0.941732
20
0.880709
0
VERTEX
8
0
10
0.941732
20
0.080709
0
SEQEND
8
0
0
POLYLINE
8
0
66
1
40
0.008000
41
0.008000
0
VERTEX
8
0
10
1.141732
20
0.080709
0
VERTEX
8
0
10
1.141732
20
0.880709
0
SEQEND
8
0
0
TEXT
8
0
10
0.966732
20
0.890709
40
0.048000
41
1.041667
1
SW1
0
POLYLINE
8
0
66
1
40
0.008000
41
0.008000
0
VERTEX
8
0
10
0.676378
20
-0.842520
0
VERTEX
8
0
10
0.626378
20
-0.842520
0
SEQEND
8
0
0
POLYLINE
8
0
66
1
40
0.008000
41
0.008000
0
VERTEX
8
0
10
0.426378
20
-0.867520
0
VERTEX
8
0
10
0.626378
20
-0.867520
0
VERTEX
8
0
10
0.626378
20
-0.817520
0
VERTEX
8
0
10
0.426378
20
-0.817520
0
VERTEX
8
0
10
0.426378
20
-0.867520
0
SEQEND
8
0
0
POLYLINE
8
0
66
1
40
0.008000
41
0.008000
0
VERTEX
8
0
10
0.426378
20
-0.842520
0
VERTEX
8
0
10
0.376378
20
-0.842520
0
SEQEND
8
0
0
TEXT
8
0
10
0.476378
20
-0.925520
40
0.048000
41
1.041667
1
R1
0
POLYLINE
8
0
66
1
40
0.008000
41
0.008000
0
VERTEX
8
0
10
-0.631890
20
0.804331
0
VERTEX
8
0
10
-0.631890
20
0.754331
0
SEQEND
8
0
0
POLYLINE
8
0
66
1
40
0.008000
41
0.008000
0
VERTEX
8
0
10
-0.656890
20
0.554331
0
VERTEX
8
0
10
-0.606890
20
0.554331
0
VERTEX
8
0
10
-0.606890
20
0.754331
0
VERTEX
8
0
10
-0.656890
20
0.754331
0
VERTEX
8
0
10
-0.656890
20
0.554331
0
SEQEND
8
0
0
POLYLINE
8
0
66
1
40
0.008000
41
0.008000
0
VERTEX
8
0
10
-0.631890
20
0.554331
0
VERTEX
8
0
10
-0.631890
20
0.504331
0
SEQEND
8
0
0
TEXT
8
0
10
-0.548890
20
0.604331
40
0.048000
41
1.041667
50
90.000000
1
R2
0
POLYLINE
8
0
66
1
40
0.008000
41
0.008000
0
VERTEX
8
0
10
-0.533465
20
0.177559
0
VERTEX
8
0
10
-0.533465
20
0.227559
0
SEQEND
8
0
0
POLYLINE
8
0
66
1
40
0.008000
41
0.008000
0
VERTEX
8
0
10
-0.558465
20
0.227559
0
VERTEX
8
0
10
-0.508465
20
0.227559
0
VERTEX
8
0
10
-0.508465
20
0.427559
0
VERTEX
8
0
10
-0.558465
20
0.427559
0
VERTEX
8
0
10
-0.558465
20
0.227559
0
SEQEND
8
0
0
POLYLINE
8
0
66
1
40
0.008000
41
0.008000
0
VERTEX
8
0
10
-0.533465
20
0.427559
0
VERTEX
8
0
10
-0.533465
20
0.477559
0
SEQEND
8
0
0
TEXT
8
0
10
-0.568465
20
0.277559
40
0.048000
41
1.041667
50
90.000000
1
R3
0
POLYLINE
8
0
66
1
40
0.008000
41
0.008000
0
VERTEX
8
0
10
-0.769685
20
0.599606
0
VERTEX
8
0
10
-0.769685
20
0.549606
0
SEQEND
8
0
0
POLYLINE
8
0
66
1
40
0.008000
41
0.008000
0
VERTEX
8
0
10
-0.794685
20
0.349606
0
VERTEX
8
0
10
-0.744685
20
0.349606
0
VERTEX
8
0
10
-0.744685
20
0.549606
0
VERTEX
8
0
10
-0.794685
20
0.549606
0
VERTEX
8
0
10
-0.794685
20
0.349606
0
SEQEND
8
0
0
POLYLINE
8
0
66
1
40
0.008000
41
0.008000
0
VERTEX
8
0
10
-0.769685
20
0.349606
0
VERTEX
8
0
10
-0.769685
20
0.299606
0
SEQEND
8
0
0
TEXT
8
0
10
-0.686685
20
0.399606
40
0.048000
41
1.041667
50
90.000000
1
R4
0
POLYLINE
8
0
66
1
40
0.008000
41
0.008000
0
VERTEX
8
0
10
0.860236
20
-0.696457
0
VERTEX
8
0
10
0.860236
20
-0.646457
0
SEQEND
8
0
0
POLYLINE
8
0
66
1
40
0.008000
41
0.008000
0
VERTEX
8
0
10
0.835236
20
-0.646457
0
VERTEX
8
0
10
0.885236
20
-0.646457
0
VERTEX
8
0
10
0.885236
20
-0.446457
0
VERTEX
8
0
10
0.835236
20
-0.446457
0
VERTEX
8
0
10
0.835236
20
-0.646457
0
SEQEND
8
0
0
POLYLINE
8
0
66
1
40
0.008000
41
0.008000
0
VERTEX
8
0
10
0.860236
20
-0.446457
0
VERTEX
8
0
10
0.860236
20
-0.396457
0
SEQEND
8
0
0
TEXT
8
0
10
0.825236
20
-0.596457
40
0.048000
41
1.041667
50
90.000000
1
R5
0
POLYLINE
8
0
66
1
40
0.008000
41
0.008000
0
VERTEX
8
0
10
0.402362
20
0.842520
0
VERTEX
8
0
10
0.452362
20
0.842520
0
SEQEND
8
0
0
POLYLINE
8
0
66
1
40
0.008000
41
0.008000
0
VERTEX
8
0
10
0.452362
20
0.817520
0
VERTEX
8
0
10
0.652362
20
0.817520
0
VERTEX
8
0
10
0.652362
20
0.867520
0
VERTEX
8
0
10
0.452362
20
0.867520
0
VERTEX
8
0
10
0.452362
20
0.817520
0
SEQEND
8
0
0
POLYLINE
8
0
66
1
40
0.008000
41
0.008000
0
VERTEX
8
0
10
0.652362
20
0.842520
0
VERTEX
8
0
10
0.702362
20
0.842520
0
SEQEND
8
0
0
TEXT
8
0
10
0.502362
20
0.877520
40
0.048000
41
1.041667
1
R6
0
POLYLINE
8
0
66
1
40
0.008000
41
0.008000
0
VERTEX
8
0
10
0.407874
20
0.716535
0
VERTEX
8
0
10
0.457874
20
0.716535
0
SEQEND
8
0
0
POLYLINE
8
0
66
1
40
0.008000
41
0.008000
0
VERTEX
8
0
10
0.457874
20
0.691535
0
VERTEX
8
0
10
0.657874
20
0.691535
0
VERTEX
8
0
10
0.657874
20
0.741535
0
VERTEX
8
0
10
0.457874
20
0.741535
0
VERTEX
8
0
10
0.457874
20
0.691535
0
SEQEND
8
0
0
POLYLINE
8
0
66
1
40
0.008000
41
0.008000
0
VERTEX
8
0
10
0.657874
20
0.716535
0
VERTEX
8
0
10
0.707874
20
0.716535
0
SEQEND
8
0
0
TEXT
8
0
10
0.507874
20
0.751535
40
0.048000
41
1.041667
1
R7
0
POLYLINE
8
0
66
1
40
0.008000
41
0.008000
0
VERTEX
8
0
10
0.411811
20
0.590551
0
VERTEX
8
0
10
0.461811
20
0.590551
0
SEQEND
8
0
0
POLYLINE
8
0
66
1
40
0.008000
41
0.008000
0
VERTEX
8
0
10
0.461811
20
0.565551
0
VERTEX
8
0
10
0.661811
20
0.565551
0
VERTEX
8
0
10
0.661811
20
0.615551
0
VERTEX
8
0
10
0.461811
20
0.615551
0
VERTEX
8
0
10
0.461811
20
0.565551
0
SEQEND
8
0
0
POLYLINE
8
0
66
1
40
0.008000
41
0.008000
0
VERTEX
8
0
10
0.661811
20
0.590551
0
VERTEX
8
0
10
0.711811
20
0.590551
0
SEQEND
8
0
0
TEXT
8
0
10
0.511811
20
0.625551
40
0.048000
41
1.041667
1
R8
0
POLYLINE
8
0
66
1
40
0.008000
41
0.008000
0
VERTEX
8
0
10
0.414173
20
0.464567
0
VERTEX
8
0
10
0.464173
20
0.464567
0
SEQEND
8
0
0
POLYLINE
8
0
66
1
40
0.008000
41
0.008000
0
VERTEX
8
0
10
0.464173
20
0.439567
0
VERTEX
8
0
10
0.664173
20
0.439567
0
VERTEX
8
0
10
0.664173
20
0.489567
0
VERTEX
8
0
10
0.464173
20
0.489567
0
VERTEX
8
0
10
0.464173
20
0.439567
0
SEQEND
8
0
0
POLYLINE
8
0
66
1
40
0.008000
41
0.008000
0
VERTEX
8
0
10
0.664173
20
0.464567
0
VERTEX
8
0
10
0.714173
20
0.464567
0
SEQEND
8
0
0
TEXT
8
0
10
0.514173
20
0.499567
40
0.048000
41
1.041667
1
R9
0
POLYLINE
8
0
66
1
40
0.008000
41
0.008000
0
VERTEX
8
0
10
0.414173
20
0.338583
0
VERTEX
8
0
10
0.464173
20
0.338583
0
SEQEND
8
0
0
POLYLINE
8
0
66
1
40
0.008000
41
0.008000
0
VERTEX
8
0
10
0.464173
20
0.313583
0
VERTEX
8
0
10
0.664173
20
0.313583
0
VERTEX
8
0
10
0.664173
20
0.363583
0
VERTEX
8
0
10
0.464173
20
0.363583
0
VERTEX
8
0
10
0.464173
20
0.313583
0
SEQEND
8
0
0
POLYLINE
8
0
66
1
40
0.008000
41
0.008000
0
VERTEX
8
0
10
0.664173
20
0.338583
0
VERTEX
8
0
10
0.714173
20
0.338583
0
SEQEND
8
0
0
TEXT
8
0
10
0.481299
20
0.373583
40
0.048000
41
1.041667
1
R10
0
POLYLINE
8
0
66
1
40
0.010000
41
0.010000
0
VERTEX
8
0
10
-0.631890
20
0.854331
0
VERTEX
8
0
10
-0.954724
20
0.854331
0
SEQEND
8
0
0
POLYLINE
8
0
66
1
40
0.010000
41
0.010000
0
VERTEX
8
0
10
-0.533465
20
0.127559
0
VERTEX
8
0
10
-0.877559
20
0.127559
0
VERTEX
8
0
10
-0.954724
20
0.204724
0
SEQEND
8
0
0
POLYLINE
8
0
66
1
40
0.010000
41
0.010000
0
VERTEX
8
0
10
0.860236
20
-0.346457
0
VERTEX
8
0
10
0.726378
20
-0.480315
0
VERTEX
8
0
10
0.570472
20
-0.480315
0
SEQEND
8
0
0
POLYLINE
8
0
66
1
40
0.010000
41
0.010000
0
VERTEX
8
0
10
-0.631890
20
0.454331
0
VERTEX
8
0
10
-0.631890
20
0.393504
0
VERTEX
8
0
10
-0.582480
20
0.393504
0
VERTEX
8
0
10
-0.509843
20
0.466142
0
VERTEX
8
0
10
-0.427165
20
0.466142
0
SEQEND
8
0
0
POLYLINE
8
0
66
1
40
0.010000
41
0.010000
0
VERTEX
8
0
10
0.726378
20
-0.842520
0
VERTEX
8
0
10
0.665354
20
-0.781496
0
VERTEX
8
0
10
-0.379528
20
-0.781496
0
VERTEX
8
0
10
-0.427165
20
-0.733858
0
SEQEND
8
0
0
POLYLINE
8
0
66
1
40
0.010000
41
0.010000
0
VERTEX
8
0
10
-0.769685
20
0.249606
0
VERTEX
8
0
10
-0.653150
20
0.366142
0
VERTEX
8
0
10
-0.427165
20
0.366142
0
SEQEND
8
0
0
POLYLINE
8
0
66
1
40
0.010000
41
0.010000
0
VERTEX
8
0
10
0.761811
20
0.590551
0
VERTEX
8
0
10
0.689764
20
0.518504
0
VERTEX
8
0
10
0.225197
20
0.518504
0
VERTEX
8
0
10
0.172835
20
0.466142
0
SEQEND
8
0
0
POLYLINE
8
0
66
1
40
0.010000
41
0.010000
0
VERTEX
8
0
10
0.761811
20
0.590551
0
VERTEX
8
0
10
0.851575
20
0.590551
0
VERTEX
8
0
10
0.891732
20
0.630709
0
SEQEND
8
0
0
POLYLINE
8
0
66
1
40
0.010000
41
0.010000
0
VERTEX
8
0
10
0.352362
20
0.842520
0
VERTEX
8
0
10
0.222228
20
0.972654
0
VERTEX
8
0
10
-0.017930
20
0.972654
0
VERTEX
8
0
10
-0.112205
20
1.066929
0
SEQEND
8
0
0
POLYLINE
8
0
66
1
40
0.010000
41
0.010000
0
VERTEX
8
0
10
0.419291
20
-0.982677
0
VERTEX
8
0
10
0.974409
20
-0.982677
0
VERTEX
8
0
10
0.992520
20
-0.964567
0
VERTEX
8
0
10
1.041339
20
-0.964567
0
SEQEND
8
0
0
POLYLINE
8
0
66
1
40
0.010000
41
0.010000
0
VERTEX
8
0
10
0.752362
20
0.842520
0
VERTEX
8
0
10
0.678346
20
0.768504
0
VERTEX
8
0
10
0.242520
20
0.768504
0
VERTEX
8
0
10
0.217520
20
0.743504
0
VERTEX
8
0
10
0.217520
20
0.610827
0
VERTEX
8
0
10
0.172835
20
0.566142
0
SEQEND
8
0
0
POLYLINE
8
0
66
1
40
0.025000
41
0.025000
0
VERTEX
8
0
10
0.752362
20
0.842520
0
VERTEX
8
0
10
0.817520
20
0.842520
0
VERTEX
8
0
10
0.829331
20
0.830709
0
VERTEX
8
0
10
0.891732
20
0.830709
0
SEQEND
8
0
0
POLYLINE
8
0
66
1
40
0.025000
41
0.025000
0
VERTEX
8
0
10
0.757874
20
0.716535
0
VERTEX
8
0
10
0.817520
20
0.716535
0
VERTEX
8
0
10
0.831693
20
0.730709
0
VERTEX
8
0
10
0.891732
20
0.730709
0
SEQEND
8
0
0
POLYLINE
8
0
66
1
40
0.010000
41
0.010000
0
VERTEX
8
0
10
-0.533465
20
0.527559
0
VERTEX
8
0
10
-0.533465
20
0.593504
0
VERTEX
8
0
10
-0.508465
20
0.618504
0
VERTEX
8
0
10
-0.479528
20
0.618504
0
VERTEX
8
0
10
-0.427165
20
0.566142
0
SEQEND
8
0
0
POLYLINE
8
0
66
1
40
0.010000
41
0.010000
0
VERTEX
8
0
10
0.764173
20
0.338583
0
VERTEX
8
0
10
0.709252
20
0.393504
0
VERTEX
8
0
10
0.242520
20
0.393504
0
VERTEX
8
0
10
0.217520
20
0.418504
0
VERTEX
8
0
10
0.117520
20
0.418504
0
VERTEX
8
0
10
0.092520
20
0.443504
0
VERTEX
8
0
10
0.092520
20
0.785827
0
VERTEX
8
0
10
0.172835
20
0.866142
0
SEQEND
8
0
0
POLYLINE
8
0
66
1
40
0.010000
41
0.010000
0
VERTEX
8
0
10
0.764173
20
0.338583
0
VERTEX
8
0
10
0.817520
20
0.391929
0
VERTEX
8
0
10
0.817520
20
0.430709
0
VERTEX
8
0
10
0.891732
20
0.430709
0
SEQEND
8
0
0
POLYLINE
8
0
66
1
40
0.010000
41
0.010000
0
VERTEX
8
0
10
-0.427165
20
0.866142
0
VERTEX
8
0
10
-0.427165
20
1.118504
0
VERTEX
8
0
10
-0.402165
20
1.143504
0
VERTEX
8
0
10
-0.110039
20
1.143504
0
VERTEX
8
0
10
-0.033465
20
1.066929
0
SEQEND
8
0
0
POLYLINE
8
0
66
1
40
0.010000
41
0.010000
0
VERTEX
8
0
10
0.172835
20
0.066142
0
VERTEX
8
0
10
0.392520
20
0.066142
0
VERTEX
8
0
10
0.396457
20
0.062205
0
VERTEX
8
0
10
0.533465
20
0.062205
0
SEQEND
8
0
0
POLYLINE
8
0
66
1
40
0.010000
41
0.010000
0
VERTEX
8
0
10
-0.033465
20
1.066929
0
VERTEX
8
0
10
0.045276
20
1.066929
0
SEQEND
8
0
0
POLYLINE
8
0
66
1
40
0.010000
41
0.010000
0
VERTEX
8
0
10
0.419291
20
-1.082677
0
VERTEX
8
0
10
0.853150
20
-1.082677
0
VERTEX
8
0
10
0.892520
20
-1.043307
0
VERTEX
8
0
10
1.041339
20
-1.043307
0
SEQEND
8
0
0
POLYLINE
8
0
66
1
40
0.010000
41
0.010000
0
VERTEX
8
0
10
-0.769685
20
0.649606
0
VERTEX
8
0
10
-0.769685
20
0.543504
0
VERTEX
8
0
10
-0.817126
20
0.496063
0
VERTEX
8
0
10
-0.950787
20
0.496063
0
SEQEND
8
0
0
POLYLINE
8
0
66
1
40
0.010000
41
0.010000
0
VERTEX
8
0
10
0.470472
20
-0.380315
0
VERTEX
8
0
10
0.533465
20
-0.317323
0
VERTEX
8
0
10
0.533465
20
-0.137795
0
SEQEND
8
0
0
POLYLINE
8
0
66
1
40
0.010000
41
0.010000
0
VERTEX
8
0
10
0.764173
20
0.464567
0
VERTEX
8
0
10
0.508847
20
0.719893
0
VERTEX
8
0
10
0.508847
20
0.868504
0
VERTEX
8
0
10
0.483847
20
0.893504
0
VERTEX
8
0
10
0.300197
20
0.893504
0
VERTEX
8
0
10
0.172835
20
0.766142
0
SEQEND
8
0
0
POLYLINE
8
0
66
1
40
0.010000
41
0.010000
0
VERTEX
8
0
10
0.764173
20
0.464567
0
VERTEX
8
0
10
0.830315
20
0.530709
0
VERTEX
8
0
10
0.891732
20
0.530709
0
SEQEND
8
0
0
POLYLINE
8
0
66
1
40
0.025000
41
0.025000
0
VERTEX
8
0
10
0.726378
20
-0.842520
0
VERTEX
8
0
10
0.817520
20
-0.842520
0
VERTEX
8
0
10
0.860236
20
-0.799803
0
VERTEX
8
0
10
0.860236
20
-0.746457
0
SEQEND
8
0
0
POLYLINE
8
0
66
1
40
0.010000
41
0.010000
0
VERTEX
8
0
10
-0.427165
20
-0.233858
0
VERTEX
8
0
10
-0.882480
20
0.221457
0
VERTEX
8
0
10
-0.882480
20
0.304724
0
VERTEX
8
0
10
-0.954724
20
0.304724
0
SEQEND
8
0
0
POLYLINE
8
0
66
1
40
0.010000
41
0.010000
0
VERTEX
8
0
10
0.470472
20
-0.580315
0
VERTEX
8
0
10
0.117520
20
-0.580315
0
VERTEX
8
0
10
0.092520
20
-0.555315
0
VERTEX
8
0
10
0.092520
20
-0.281496
0
SEQEND
8
0
0
POLYLINE
8
0
66
1
40
0.025000
41
0.025000
0
VERTEX
8
0
10
0.172835
20
-0.033858
0
VERTEX
8
0
10
0.364173
20
0.157480
0
VERTEX
8
0
10
0.364173
20
0.338583
0
SEQEND
8
0
0
POLYLINE
8
0
66
1
40
0.010000
41
0.010000
0
VERTEX
8
0
10
0.470472
20
-0.580315
0
VERTEX
8
0
10
0.470472
20
-0.698425
0
VERTEX
8
0
10
0.326378
20
-0.842520
0
SEQEND
8
0
0
POLYLINE
8
0
66
1
40
0.010000
41
0.010000
0
VERTEX
8
0
10
-0.427165
20
-0.233858
0
VERTEX
8
0
10
0.044882
20
-0.233858
0
VERTEX
8
0
10
0.092520
20
-0.281496
0
SEQEND
8
0
0
POLYLINE
8
0
66
1
40
0.010000
41
0.010000
0
VERTEX
8
0
10
0.172835
20
-0.033858
0
VERTEX
8
0
10
0.117520
20
-0.089173
0
VERTEX
8
0
10
0.117520
20
-0.256496
0
VERTEX
8
0
10
0.092520
20
-0.281496
0
SEQEND
8
0
0
POLYLINE
8
0
66
1
40
0.010000
41
0.010000
0
VERTEX
8
0
10
0.419291
20
-0.982677
0
VERTEX
8
0
10
0.326378
20
-0.982677
0
VERTEX
8
0
10
0.326378
20
-0.842520
0
SEQEND
8
0
0
POLYLINE
8
0
66
1
40
0.010000
41
0.010000
0
VERTEX
8
0
10
-0.950787
20
0.596063
0
VERTEX
8
0
10
-1.032480
20
0.596063
0
VERTEX
8
0
10
-1.057480
20
0.571063
0
VERTEX
8
0
10
-1.057480
20
0.407480
0
VERTEX
8
0
10
-0.954724
20
0.304724
0
SEQEND
8
0
0
POLYLINE
8
0
66
1
40
0.010000
41
0.010000
0
VERTEX
8
0
10
-0.950787
20
0.596063
0
VERTEX
8
0
10
-0.954724
20
0.600000
0
VERTEX
8
0
10
-0.954724
20
0.754331
0
SEQEND
8
0
0
POLYLINE
8
0
66
1
40
0.025000
41
0.025000
0
VERTEX
8
0
10
0.357874
20
0.716535
0
VERTEX
8
0
10
0.357874
20
0.594488
0
VERTEX
8
0
10
0.361811
20
0.590551
0
VERTEX
8
0
10
0.361811
20
0.466929
0
VERTEX
8
0
10
0.364173
20
0.464567
0
VERTEX
8
0
10
0.364173
20
0.338583
0
SEQEND
8
0
0
POLYLINE
8
0
66
1
40
0.010000
41
0.010000
0
VERTEX
8
0
10
0.757874
20
0.716535
0
VERTEX
8
0
10
0.530905
20
0.943504
0
VERTEX
8
0
10
0.142520
20
0.943504
0
VERTEX
8
0
10
0.117520
20
0.918504
0
VERTEX
8
0
10
0.117520
20
0.721457
0
VERTEX
8
0
10
0.172835
20
0.666142
0
SEQEND
8
0
0
POLYLINE
8
0
66
1
40
0.010000
41
0.010000
0
VERTEX
8
0
10
-0.427165
20
0.766142
0
VERTEX
8
0
10
-0.190945
20
1.002362
0
VERTEX
8
0
10
-0.190945
20
1.066929
0
SEQEND
8
0
0
POLYLINE
8
0
66
1
40
0.010000
41
0.010000
0
VERTEX
8
0
10
-0.427165
20
0.666142
0
VERTEX
8
0
10
0.067520
20
0.666142
0
VERTEX
8
0
10
0.092520
20
0.691142
0
VERTEX
8
0
10
0.092520
20
1.118504
0
VERTEX
8
0
10
0.067520
20
1.143504
0
VERTEX
8
0
10
-0.193110
20
1.143504
0
VERTEX
8
0
10
-0.269685
20
1.066929
0
SEQEND
8
0
0
POLYLINE
8
0
66
1
40
0.025000
41
0.025000
0
VERTEX
8
0
10
1.191732
20
0.430709
0
VERTEX
8
0
10
1.117520
20
0.356496
0
VERTEX
8
0
10
1.117520
20
0.043504
0
VERTEX
8
0
10
1.092520
20
0.018504
0
VERTEX
8
0
10
0.667520
20
0.018504
0
SEQEND
8
0
0
POLYLINE
8
0
66
1
40
0.010000
41
0.010000
0
VERTEX
8
0
10
-0.427165
20
0.866142
0
VERTEX
8
0
10
-0.482480
20
0.810827
0
VERTEX
8
0
10
-0.482480
20
0.043504
0
VERTEX
8
0
10
-0.457480
20
0.018504
0
SEQEND
8
0
0
POLYLINE
8
0
66
1
40
0.010000
41
0.010000
0
VERTEX
8
0
10
0.172835
20
0.066142
0
VERTEX
8
0
10
0.125197
20
0.018504
0
VERTEX
8
0
10
-0.457480
20
0.018504
0
VERTEX
8
0
10
-0.482480
20
-0.006496
0
VERTEX
8
0
10
-0.482480
20
-0.078543
0
VERTEX
8
0
10
-0.427165
20
-0.133858
0
SEQEND
8
0
0
POLYLINE
8
0
66
1
40
0.025000
41
0.025000
0
VERTEX
8
0
10
0.533465
20
0.062205
0
VERTEX
8
0
10
0.623819
20
0.062205
0
VERTEX
8
0
10
0.667520
20
0.018504
0
SEQEND
8
0
0
POLYLINE
8
0
66
1
40
0.025000
41
0.025000
0
VERTEX
8
0
10
1.191732
20
0.630709
0
VERTEX
8
0
10
1.191732
20
0.730709
0
SEQEND
8
0
0
POLYLINE
8
0
66
1
40
0.025000
41
0.025000
0
VERTEX
8
0
10
1.191732
20
0.530709
0
VERTEX
8
0
10
1.191732
20
0.630709
0
SEQEND
8
0
0
POLYLINE
8
0
66
1
40
0.025000
41
0.025000
0
VERTEX
8
0
10
1.191732
20
0.430709
0
VERTEX
8
0
10
1.191732
20
0.530709
0
SEQEND
8
0
0
POLYLINE
8
0
66
1
40
0.025000
41
0.025000
0
VERTEX
8
0
10
1.191732
20
0.730709
0
VERTEX
8
0
10
1.191732
20
0.830709
0
SEQEND
8
0
0
POLYLINE
8
0
66
1
40
0.025000
41
0.025000
0
VERTEX
8
0
10
0.419291
20
-1.082677
0
VERTEX
8
0
10
0.572835
20
-1.043307
0
VERTEX
8
0
10
0.675197
20
-0.633858
0
VERTEX
8
0
10
0.667520
20
0.018504
0
SEQEND
8
0
0
POLYLINE
8
0
66
1
40
0.025000
41
0.025000
0
VERTEX
8
0
10
0.352362
20
0.842520
0
VERTEX
8
0
10
0.348425
20
0.842520
0
VERTEX
8
0
10
0.348425
20
0.725984
0
VERTEX
8
0
10
0.357874
20
0.716535
0
SEQEND
8
0
0
INSERT
8
0
2
RPAD
10
-0.427165
20
0.866142
41
0.050000
42
0.050000
50
270.000000
0
CIRCLE
8
0
10
-0.427165
20
0.866142
40
0.030000
0
INSERT
8
0
2
EPAD
10
-0.427165
20
0.766142
41
0.050000
42
0.050000
0
CIRCLE
8
0
10
-0.427165
20
0.766142
40
0.030000
0
INSERT
8
0
2
EPAD
10
-0.427165
20
0.666142
41
0.050000
42
0.050000
0
CIRCLE
8
0
10
-0.427165
20
0.666142
40
0.030000
0
INSERT
8
0
2
EPAD
10
-0.427165
20
0.566142
41
0.050000
42
0.050000
0
CIRCLE
8
0
10
-0.427165
20
0.566142
40
0.030000
0
INSERT
8
0
2
EPAD
10
-0.427165
20
0.466142
41
0.050000
42
0.050000
0
CIRCLE
8
0
10
-0.427165
20
0.466142
40
0.030000
0
INSERT
8
0
2
EPAD
10
-0.427165
20
0.366142
41
0.050000
42
0.050000
0
CIRCLE
8
0
10
-0.427165
20
0.366142
40
0.030000
0
INSERT
8
0
2
EPAD
10
-0.427165
20
0.266142
41
0.050000
42
0.050000
0
CIRCLE
8
0
10
-0.427165
20
0.266142
40
0.030000
0
INSERT
8
0
2
EPAD
10
-0.427165
20
0.166142
41
0.050000
42
0.050000
0
CIRCLE
8
0
10
-0.427165
20
0.166142
40
0.030000
0
INSERT
8
0
2
EPAD
10
-0.427165
20
0.066142
41
0.050000
42
0.050000
0
CIRCLE
8
0
10
-0.427165
20
0.066142
40
0.030000
0
INSERT
8
0
2
EPAD
10
-0.427165
20
-0.033858
41
0.050000
42
0.050000
0
CIRCLE
8
0
10
-0.427165
20
-0.033858
40
0.030000
0
INSERT
8
0
2
EPAD
10
-0.427165
20
-0.133858
41
0.050000
42
0.050000
0
CIRCLE
8
0
10
-0.427165
20
-0.133858
40
0.030000
0
INSERT
8
0
2
EPAD
10
-0.427165
20
-0.233858
41
0.050000
42
0.050000
0
CIRCLE
8
0
10
-0.427165
20
-0.233858
40
0.030000
0
INSERT
8
0
2
EPAD
10
-0.427165
20
-0.333858
41
0.050000
42
0.050000
0
CIRCLE
8
0
10
-0.427165
20
-0.333858
40
0.030000
0
INSERT
8
0
2
EPAD
10
-0.427165
20
-0.433858
41
0.050000
42
0.050000
0
CIRCLE
8
0
10
-0.427165
20
-0.433858
40
0.030000
0
INSERT
8
0
2
EPAD
10
-0.427165
20
-0.533858
41
0.050000
42
0.050000
0
CIRCLE
8
0
10
-0.427165
20
-0.533858
40
0.030000
0
INSERT
8
0
2
EPAD
10
-0.427165
20
-0.633858
41
0.050000
42
0.050000
0
CIRCLE
8
0
10
-0.427165
20
-0.633858
40
0.030000
0
INSERT
8
0
2
EPAD
10
-0.427165
20
-0.733858
41
0.050000
42
0.050000
0
CIRCLE
8
0
10
-0.427165
20
-0.733858
40
0.030000
0
INSERT
8
0
2
EPAD
10
-0.427165
20
-0.833858
41
0.050000
42
0.050000
0
CIRCLE
8
0
10
-0.427165
20
-0.833858
40
0.030000
0
INSERT
8
0
2
EPAD
10
-0.427165
20
-0.933858
41
0.050000
42
0.050000
0
CIRCLE
8
0
10
-0.427165
20
-0.933858
40
0.030000
0
INSERT
8
0
2
EPAD
10
-0.427165
20
-1.033858
41
0.050000
42
0.050000
0
CIRCLE
8
0
10
-0.427165
20
-1.033858
40
0.030000
0
INSERT
8
0
2
EPAD
10
0.172835
20
-1.033858
41
0.050000
42
0.050000
0
CIRCLE
8
0
10
0.172835
20
-1.033858
40
0.030000
0
INSERT
8
0
2
EPAD
10
0.172835
20
-0.933858
41
0.050000
42
0.050000
0
CIRCLE
8
0
10
0.172835
20
-0.933858
40
0.030000
0
INSERT
8
0
2
EPAD
10
0.172835
20
-0.833858
41
0.050000
42
0.050000
0
CIRCLE
8
0
10
0.172835
20
-0.833858
40
0.030000
0
INSERT
8
0
2
EPAD
10
0.172835
20
-0.733858
41
0.050000
42
0.050000
0
CIRCLE
8
0
10
0.172835
20
-0.733858
40
0.030000
0
INSERT
8
0
2
EPAD
10
0.172835
20
-0.633858
41
0.050000
42
0.050000
0
CIRCLE
8
0
10
0.172835
20
-0.633858
40
0.030000
0
INSERT
8
0
2
EPAD
10
0.172835
20
-0.533858
41
0.050000
42
0.050000
0
CIRCLE
8
0
10
0.172835
20
-0.533858
40
0.030000
0
INSERT
8
0
2
EPAD
10
0.172835
20
-0.433858
41
0.050000
42
0.050000
0
CIRCLE
8
0
10
0.172835
20
-0.433858
40
0.030000
0
INSERT
8
0
2
EPAD
10
0.172835
20
-0.333858
41
0.050000
42
0.050000
0
CIRCLE
8
0
10
0.172835
20
-0.333858
40
0.030000
0
INSERT
8
0
2
EPAD
10
0.172835
20
-0.233858
41
0.050000
42
0.050000
0
CIRCLE
8
0
10
0.172835
20
-0.233858
40
0.030000
0
INSERT
8
0
2
EPAD
10
0.172835
20
-0.133858
41
0.050000
42
0.050000
0
CIRCLE
8
0
10
0.172835
20
-0.133858
40
0.030000
0
INSERT
8
0
2
EPAD
10
0.172835
20
-0.033858
41
0.050000
42
0.050000
0
CIRCLE
8
0
10
0.172835
20
-0.033858
40
0.030000
0
INSERT
8
0
2
EPAD
10
0.172835
20
0.066142
41
0.050000
42
0.050000
0
CIRCLE
8
0
10
0.172835
20
0.066142
40
0.030000
0
INSERT
8
0
2
EPAD
10
0.172835
20
0.166142
41
0.050000
42
0.050000
0
CIRCLE
8
0
10
0.172835
20
0.166142
40
0.030000
0
INSERT
8
0
2
EPAD
10
0.172835
20
0.266142
41
0.050000
42
0.050000
0
CIRCLE
8
0
10
0.172835
20
0.266142
40
0.030000
0
INSERT
8
0
2
EPAD
10
0.172835
20
0.366142
41
0.050000
42
0.050000
0
CIRCLE
8
0
10
0.172835
20
0.366142
40
0.030000
0
INSERT
8
0
2
EPAD
10
0.172835
20
0.466142
41
0.050000
42
0.050000
0
CIRCLE
8
0
10
0.172835
20
0.466142
40
0.030000
0
INSERT
8
0
2
EPAD
10
0.172835
20
0.566142
41
0.050000
42
0.050000
0
CIRCLE
8
0
10
0.172835
20
0.566142
40
0.030000
0
INSERT
8
0
2
EPAD
10
0.172835
20
0.666142
41
0.050000
42
0.050000
0
CIRCLE
8
0
10
0.172835
20
0.666142
40
0.030000
0
INSERT
8
0
2
EPAD
10
0.172835
20
0.766142
41
0.050000
42
0.050000
0
CIRCLE
8
0
10
0.172835
20
0.766142
40
0.030000
0
INSERT
8
0
2
EPAD
10
0.172835
20
0.866142
41
0.050000
42
0.050000
0
CIRCLE
8
0
10
0.172835
20
0.866142
40
0.030000
0
INSERT
8
0
2
EPAD
10
0.533465
20
0.062205
41
0.080000
42
0.080000
0
CIRCLE
8
0
10
0.533465
20
0.062205
40
0.025000
0
INSERT
8
0
2
EPAD
10
0.533465
20
-0.137795
41
0.080000
42
0.080000
0
CIRCLE
8
0
10
0.533465
20
-0.137795
40
0.025000
0
INSERT
8
0
2
EPAD
10
0.419291
20
-1.082677
41
0.080000
42
0.080000
0
CIRCLE
8
0
10
0.419291
20
-1.082677
40
0.025000
0
INSERT
8
0
2
EPAD
10
0.419291
20
-0.982677
41
0.080000
42
0.080000
0
CIRCLE
8
0
10
0.419291
20
-0.982677
40
0.025000
0
INSERT
8
0
2
RPAD
10
-0.950787
20
0.496063
41
0.080000
42
0.080000
50
90.000000
0
CIRCLE
8
0
10
-0.950787
20
0.496063
40
0.025000
0
INSERT
8
0
2
RPAD
10
-0.950787
20
0.596063
41
0.080000
42
0.080000
50
90.000000
0
CIRCLE
8
0
10
-0.950787
20
0.596063
40
0.025000
0
INSERT
8
0
2
RPAD
10
-0.954724
20
0.854331
41
0.080000
42
0.080000
50
270.000000
0
CIRCLE
8
0
10
-0.954724
20
0.854331
40
0.025000
0
INSERT
8
0
2
RPAD
10
-0.954724
20
0.754331
41
0.080000
42
0.080000
50
270.000000
0
CIRCLE
8
0
10
-0.954724
20
0.754331
40
0.025000
0
INSERT
8
0
2
RPAD
10
-0.954724
20
0.204724
41
0.080000
42
0.080000
50
90.000000
0
CIRCLE
8
0
10
-0.954724
20
0.204724
40
0.025000
0
INSERT
8
0
2
RPAD
10
-0.954724
20
0.304724
41
0.080000
42
0.080000
50
90.000000
0
CIRCLE
8
0
10
-0.954724
20
0.304724
40
0.025000
0
INSERT
8
0
2
EPAD
10
0.045276
20
1.066929
41
0.055000
42
0.055000
0
INSERT
8
0
2
EPAD
10
0.045276
20
1.066929
41
0.055000
42
0.055000
0
INSERT
8
0
2
EPAD
10
-0.033465
20
1.066929
41
0.055000
42
0.055000
0
INSERT
8
0
2
EPAD
10
-0.033465
20
1.066929
41
0.055000
42
0.055000
0
INSERT
8
0
2
EPAD
10
-0.112205
20
1.066929
41
0.055000
42
0.055000
0
INSERT
8
0
2
EPAD
10
-0.112205
20
1.066929
41
0.055000
42
0.055000
0
INSERT
8
0
2
EPAD
10
-0.190945
20
1.066929
41
0.055000
42
0.055000
0
INSERT
8
0
2
EPAD
10
-0.190945
20
1.066929
41
0.055000
42
0.055000
0
INSERT
8
0
2
EPAD
10
-0.269685
20
1.066929
41
0.055000
42
0.055000
0
INSERT
8
0
2
EPAD
10
-0.269685
20
1.066929
41
0.055000
42
0.055000
0
INSERT
8
0
2
EPAD
10
1.041339
20
-1.043307
41
0.055000
42
0.055000
0
INSERT
8
0
2
EPAD
10
1.041339
20
-1.043307
41
0.055000
42
0.055000
0
INSERT
8
0
2
EPAD
10
1.041339
20
-0.964567
41
0.055000
42
0.055000
0
INSERT
8
0
2
EPAD
10
1.041339
20
-0.964567
41
0.055000
42
0.055000
0
INSERT
8
0
2
EPAD
10
0.470472
20
-0.580315
41
0.080000
42
0.080000
0
CIRCLE
8
0
10
0.470472
20
-0.580315
40
0.025000
0
INSERT
8
0
2
EPAD
10
0.570472
20
-0.480315
41
0.080000
42
0.080000
0
CIRCLE
8
0
10
0.570472
20
-0.480315
40
0.025000
0
INSERT
8
0
2
EPAD
10
0.470472
20
-0.380315
41
0.080000
42
0.080000
0
CIRCLE
8
0
10
0.470472
20
-0.380315
40
0.025000
0
INSERT
8
0
2
RPAD
10
0.891732
20
0.830709
41
0.050000
42
0.050000
50
270.000000
0
CIRCLE
8
0
10
0.891732
20
0.830709
40
0.030000
0
INSERT
8
0
2
EPAD
10
0.891732
20
0.730709
41
0.050000
42
0.050000
0
CIRCLE
8
0
10
0.891732
20
0.730709
40
0.030000
0
INSERT
8
0
2
EPAD
10
0.891732
20
0.630709
41
0.050000
42
0.050000
0
CIRCLE
8
0
10
0.891732
20
0.630709
40
0.030000
0
INSERT
8
0
2
EPAD
10
0.891732
20
0.530709
41
0.050000
42
0.050000
0
CIRCLE
8
0
10
0.891732
20
0.530709
40
0.030000
0
INSERT
8
0
2
EPAD
10
0.891732
20
0.430709
41
0.050000
42
0.050000
0
CIRCLE
8
0
10
0.891732
20
0.430709
40
0.030000
0
INSERT
8
0
2
EPAD
10
0.891732
20
0.330709
41
0.050000
42
0.050000
0
CIRCLE
8
0
10
0.891732
20
0.330709
40
0.030000
0
INSERT
8
0
2
EPAD
10
0.891732
20
0.230709
41
0.050000
42
0.050000
0
CIRCLE
8
0
10
0.891732
20
0.230709
40
0.030000
0
INSERT
8
0
2
EPAD
10
0.891732
20
0.130709
41
0.050000
42
0.050000
0
CIRCLE
8
0
10
0.891732
20
0.130709
40
0.030000
0
INSERT
8
0
2
EPAD
10
1.191732
20
0.130709
41
0.050000
42
0.050000
0
CIRCLE
8
0
10
1.191732
20
0.130709
40
0.030000
0
INSERT
8
0
2
EPAD
10
1.191732
20
0.230709
41
0.050000
42
0.050000
0
CIRCLE
8
0
10
1.191732
20
0.230709
40
0.030000
0
INSERT
8
0
2
EPAD
10
1.191732
20
0.330709
41
0.050000
42
0.050000
0
CIRCLE
8
0
10
1.191732
20
0.330709
40
0.030000
0
INSERT
8
0
2
EPAD
10
1.191732
20
0.430709
41
0.050000
42
0.050000
0
CIRCLE
8
0
10
1.191732
20
0.430709
40
0.030000
0
INSERT
8
0
2
EPAD
10
1.191732
20
0.530709
41
0.050000
42
0.050000
0
CIRCLE
8
0
10
1.191732
20
0.530709
40
0.030000
0
INSERT
8
0
2
EPAD
10
1.191732
20
0.630709
41
0.050000
42
0.050000
0
CIRCLE
8
0
10
1.191732
20
0.630709
40
0.030000
0
INSERT
8
0
2
EPAD
10
1.191732
20
0.730709
41
0.050000
42
0.050000
0
CIRCLE
8
0
10
1.191732
20
0.730709
40
0.030000
0
INSERT
8
0
2
EPAD
10
1.191732
20
0.830709
41
0.050000
42
0.050000
0
CIRCLE
8
0
10
1.191732
20
0.830709
40
0.030000
0
INSERT
8
0
2
EPAD
10
0.726378
20
-0.842520
41
0.070000
42
0.070000
0
CIRCLE
8
0
10
0.726378
20
-0.842520
40
0.025000
0
INSERT
8
0
2
EPAD
10
0.326378
20
-0.842520
41
0.070000
42
0.070000
0
CIRCLE
8
0
10
0.326378
20
-0.842520
40
0.025000
0
INSERT
8
0
2
EPAD
10
-0.631890
20
0.854331
41
0.070000
42
0.070000
0
CIRCLE
8
0
10
-0.631890
20
0.854331
40
0.025000
0
INSERT
8
0
2
EPAD
10
-0.631890
20
0.454331
41
0.070000
42
0.070000
0
CIRCLE
8
0
10
-0.631890
20
0.454331
40
0.025000
0
INSERT
8
0
2
EPAD
10
-0.533465
20
0.127559
41
0.070000
42
0.070000
0
CIRCLE
8
0
10
-0.533465
20
0.127559
40
0.025000
0
INSERT
8
0
2
EPAD
10
-0.533465
20
0.527559
41
0.070000
42
0.070000
0
CIRCLE
8
0
10
-0.533465
20
0.527559
40
0.025000
0
INSERT
8
0
2
EPAD
10
-0.769685
20
0.649606
41
0.070000
42
0.070000
0
CIRCLE
8
0
10
-0.769685
20
0.649606
40
0.025000
0
INSERT
8
0
2
EPAD
10
-0.769685
20
0.249606
41
0.070000
42
0.070000
0
CIRCLE
8
0
10
-0.769685
20
0.249606
40
0.025000
0
INSERT
8
0
2
EPAD
10
0.860236
20
-0.746457
41
0.070000
42
0.070000
0
CIRCLE
8
0
10
0.860236
20
-0.746457
40
0.025000
0
INSERT
8
0
2
EPAD
10
0.860236
20
-0.346457
41
0.070000
42
0.070000
0
CIRCLE
8
0
10
0.860236
20
-0.346457
40
0.025000
0
INSERT
8
0
2
EPAD
10
0.352362
20
0.842520
41
0.070000
42
0.070000
0
CIRCLE
8
0
10
0.352362
20
0.842520
40
0.025000
0
INSERT
8
0
2
EPAD
10
0.752362
20
0.842520
41
0.070000
42
0.070000
0
CIRCLE
8
0
10
0.752362
20
0.842520
40
0.025000
0
INSERT
8
0
2
EPAD
10
0.357874
20
0.716535
41
0.070000
42
0.070000
0
CIRCLE
8
0
10
0.357874
20
0.716535
40
0.025000
0
INSERT
8
0
2
EPAD
10
0.757874
20
0.716535
41
0.070000
42
0.070000
0
CIRCLE
8
0
10
0.757874
20
0.716535
40
0.025000
0
INSERT
8
0
2
EPAD
10
0.361811
20
0.590551
41
0.070000
42
0.070000
0
CIRCLE
8
0
10
0.361811
20
0.590551
40
0.025000
0
INSERT
8
0
2
EPAD
10
0.761811
20
0.590551
41
0.070000
42
0.070000
0
CIRCLE
8
0
10
0.761811
20
0.590551
40
0.025000
0
INSERT
8
0
2
EPAD
10
0.364173
20
0.464567
41
0.070000
42
0.070000
0
CIRCLE
8
0
10
0.364173
20
0.464567
40
0.025000
0
INSERT
8
0
2
EPAD
10
0.764173
20
0.464567
41
0.070000
42
0.070000
0
CIRCLE
8
0
10
0.764173
20
0.464567
40
0.025000
0
INSERT
8
0
2
EPAD
10
0.364173
20
0.338583
41
0.070000
42
0.070000
0
CIRCLE
8
0
10
0.364173
20
0.338583
40
0.025000
0
INSERT
8
0
2
EPAD
10
0.764173
20
0.338583
41
0.070000
42
0.070000
0
CIRCLE
8
0
10
0.764173
20
0.338583
40
0.025000
0
POLYLINE
8
0
66
1
40
0.008000
41
0.008000
0
VERTEX
8
0
10
-1.301181
20
-1.279528
0
VERTEX
8
0
10
1.301181
20
-1.279528
0
VERTEX
8
0
10
1.301181
20
1.279528
0
VERTEX
8
0
10
-1.301181
20
1.279528
0
VERTEX
8
0
10
-1.301181
20
-1.279528
0
SEQEND
8
0
0
POLYLINE
8
0
66
1
40
0.000000
41
0.000000
0
VERTEX
8
0
10
-1.234567
20
-1.205039
0
VERTEX
8
0
10
-1.194567
20
-1.205039
0
VERTEX
8
0
10
-1.194567
20
-1.165039
0
VERTEX
8
0
10
-1.234567
20
-1.165039
0
VERTEX
8
0
10
-1.234567
20
-1.205039
0
SEQEND
8
0
0
POLYLINE
8
0
66
1
40
0.000000
41
0.000000
0
VERTEX
8
0
10
-1.254567
20
-1.185039
0
VERTEX
8
0
10
-1.174567
20
-1.185039
0
SEQEND
8
0
0
POLYLINE
8
0
66
1
40
0.000000
41
0.000000
0
VERTEX
8
0
10
-1.214567
20
-1.145039
0
VERTEX
8
0
10
-1.214567
20
-1.225039
0
SEQEND
8
0
0
POLYLINE
8
0
66
1
40
0.008000
41
0.008000
0
VERTEX
8
0
10
-0.127165
20
0.816142
0
VERTEX
8
0
10
-0.106791
20
0.818142
0
VERTEX
8
0
10
-0.087915
20
0.823892
0
VERTEX
8
0
10
-0.070915
20
0.833017
0
VERTEX
8
0
10
-0.056165
20
0.845142
0
VERTEX
8
0
10
-0.044040
20
0.859892
0
VERTEX
8
0
10
-0.034915
20
0.876892
0
VERTEX
8
0
10
-0.029165
20
0.895767
0
VERTEX
8
0
10
-0.027165
20
0.916142
0
SEQEND
8
0
0
POLYLINE
8
0
66
1
40
0.008000
41
0.008000
0
VERTEX
8
0
10
-0.127165
20
0.816142
0
VERTEX
8
0
10
-0.147828
20
0.818142
0
VERTEX
8
0
10
-0.166837
20
0.823892
0
VERTEX
8
0
10
-0.183855
20
0.833017
0
VERTEX
8
0
10
-0.198540
20
0.845142
0
VERTEX
8
0
10
-0.210554
20
0.859892
0
VERTEX
8
0
10
-0.219556
20
0.876892
0
VERTEX
8
0
10
-0.225206
20
0.895767
0
VERTEX
8
0
10
-0.227165
20
0.916142
0
SEQEND
8
0
0
POLYLINE
8
0
66
1
40
0.008000
41
0.008000
0
VERTEX
8
0
10
-0.027165
20
0.916142
0
VERTEX
8
0
10
0.122835
20
0.916142
0
SEQEND
8
0
0
POLYLINE
8
0
66
1
40
0.008000
41
0.008000
0
VERTEX
8
0
10
0.122835
20
-1.083858
0
VERTEX
8
0
10
-0.377165
20
-1.083858
0
SEQEND
8
0
0
POLYLINE
8
0
66
1
40
0.008000
41
0.008000
0
VERTEX
8
0
10
-0.377165
20
0.916142
0
VERTEX
8
0
10
-0.227165
20
0.916142
0
SEQEND
8
0
0
POLYLINE
8
0
66
1
40
0.008000
41
0.008000
0
VERTEX
8
0
10
0.122835
20
0.916142
0
VERTEX
8
0
10
0.122835
20
-1.083858
0
SEQEND
8
0
0
POLYLINE
8
0
66
1
40
0.008000
41
0.008000
0
VERTEX
8
0
10
-0.377165
20
0.916142
0
VERTEX
8
0
10
-0.377165
20
-1.083858
0
SEQEND
8
0
0
TEXT
8
0
10
-0.177165
20
0.926142
40
0.048000
41
1.041667
1
U1
0
POLYLINE
8
0
66
1
40
0.008000
41
0.008000
0
VERTEX
8
0
10
0.433465
20
-0.187795
0
VERTEX
8
0
10
0.433465
20
0.112205
0
VERTEX
8
0
10
0.583465
20
0.112205
0
VERTEX
8
0
10
0.583465
20
-0.187795
0
VERTEX
8
0
10
0.433465
20
-0.187795
0
SEQEND
8
0
0
POLYLINE
8
0
66
1
40
0.008000
41
0.008000
0
VERTEX
8
0
10
0.583465
20
-0.187795
0
VERTEX
8
0
10
0.683465
20
-0.237795
0
VERTEX
8
0
10
0.683465
20
0.162205
0
VERTEX
8
0
10
0.583465
20
0.112205
0
SEQEND
8
0
0
CIRCLE
8
0
10
0.533465
20
-0.137795
40
0.000000
0
CIRCLE
8
0
10
0.533465
20
-0.137795
40
0.035000
0
CIRCLE
8
0
10
0.533465
20
0.062205
40
0.035000
0
TEXT
8
0
10
0.423465
20
-0.137795
40
0.048000
41
1.041667
50
90.000000
1
BUZ3
0
CIRCLE
8
0
10
0.419291
20
-1.032677
40
0.100000
0
POLYLINE
8
0
66
1
40
0.008000
41
0.008000
0
VERTEX
8
0
10
0.369291
20
-1.107677
0
VERTEX
8
0
10
0.369291
20
-1.057677
0
SEQEND
8
0
0
POLYLINE
8
0
66
1
40
0.008000
41
0.008000
0
VERTEX
8
0
10
0.344291
20
-1.082677
0
VERTEX
8
0
10
0.394291
20
-1.082677
0
SEQEND
8
0
0
TEXT
8
0
10
0.285669
20
-1.067291
40
0.048000
41
1.041667
50
90.000000
1
C1
0
CIRCLE
8
0
10
-0.950787
20
0.546063
40
0.000000
0
CIRCLE
8
0
10
-0.950787
20
0.546063
40
0.100000
0
POLYLINE
8
0
66
1
40
0.008000
41
0.008000
0
VERTEX
8
0
10
-1.050787
20
0.421063
0
VERTEX
8
0
10
-1.050787
20
0.471063
0
SEQEND
8
0
0
POLYLINE
8
0
66
1
40
0.008000
41
0.008000
0
VERTEX
8
0
10
-1.075787
20
0.446063
0
VERTEX
8
0
10
-1.025787
20
0.446063
0
SEQEND
8
0
0
TEXT
8
0
10
-1.085787
20
0.483563
40
0.048000
41
1.041667
50
90.000000
1
D1
0
CIRCLE
8
0
10
-0.954724
20
0.804331
40
0.000000
0
CIRCLE
8
0
10
-0.954724
20
0.804331
40
0.100000
0
POLYLINE
8
0
66
1
40
0.008000
41
0.008000
0
VERTEX
8
0
10
-0.854724
20
0.929331
0
VERTEX
8
0
10
-0.854724
20
0.879331
0
SEQEND
8
0
0
POLYLINE
8
0
66
1
40
0.008000
41
0.008000
0
VERTEX
8
0
10
-0.829724
20
0.904331
0
VERTEX
8
0
10
-0.879724
20
0.904331
0
SEQEND
8
0
0
TEXT
8
0
10
-0.771724
20
0.766831
40
0.048000
41
1.041667
50
90.000000
1
D2
0
CIRCLE
8
0
10
-0.954724
20
0.254724
40
0.000000
0
CIRCLE
8
0
10
-0.954724
20
0.254724
40
0.100000
0
POLYLINE
8
0
66
1
40
0.008000
41
0.008000
0
VERTEX
8
0
10
-1.054724
20
0.129724
0
VERTEX
8
0
10
-1.054724
20
0.179724
0
SEQEND
8
0
0
POLYLINE
8
0
66
1
40
0.008000
41
0.008000
0
VERTEX
8
0
10
-1.079724
20
0.154724
0
VERTEX
8
0
10
-1.029724
20
0.154724
0
SEQEND
8
0
0
TEXT
8
0
10
-1.089724
20
0.192224
40
0.048000
41
1.041667
50
90.000000
1
D3
0
CIRCLE
8
0
10
0.045276
20
0.991929
40
0.015000
0
POLYLINE
8
0
66
1
40
0.006000
41
0.006000
0
VERTEX
8
0
10
-0.297185
20
1.019929
0
VERTEX
8
0
10
0.072776
20
1.019929
0
VERTEX
8
0
10
0.072776
20
1.037061
0
SEQEND
8
0
0
POLYLINE
8
0
66
1
40
0.006000
41
0.006000
0
VERTEX
8
0
10
0.072776
20
1.113929
0
VERTEX
8
0
10
-0.297185
20
1.113929
0
VERTEX
8
0
10
-0.297185
20
1.096797
0
SEQEND
8
0
0
POLYLINE
8
0
66
1
40
0.006000
41
0.006000
0
VERTEX
8
0
10
-0.297185
20
1.037061
0
VERTEX
8
0
10
-0.297185
20
1.019929
0
SEQEND
8
0
0
POLYLINE
8
0
66
1
40
0.006000
41
0.006000
0
VERTEX
8
0
10
0.072776
20
1.096797
0
VERTEX
8
0
10
0.072776
20
1.113929
0
SEQEND
8
0
0
TEXT
8
0
10
-0.162205
20
1.122929
40
0.048000
41
1.041667
1
J1
0
CIRCLE
8
0
10
1.116339
20
-1.043307
40
0.015000
0
POLYLINE
8
0
66
1
40
0.006000
41
0.006000
0
VERTEX
8
0
10
1.080968
20
-1.101937
0
VERTEX
8
0
10
1.080968
20
-1.052129
0
SEQEND
8
0
0
POLYLINE
8
0
66
1
40
0.006000
41
0.006000
0
VERTEX
8
0
10
1.080968
20
-0.905937
0
VERTEX
8
0
10
1.001969
20
-0.905937
0
VERTEX
8
0
10
1.001969
20
-0.954649
0
SEQEND
8
0
0
POLYLINE
8
0
66
1
40
0.006000
41
0.006000
0
VERTEX
8
0
10
1.001969
20
-1.101937
0
VERTEX
8
0
10
1.080968
20
-1.101937
0
SEQEND
8
0
0
POLYLINE
8
0
66
1
40
0.006000
41
0.006000
0
VERTEX
8
0
10
1.080968
20
-0.955745
0
VERTEX
8
0
10
1.080968
20
-0.905937
0
SEQEND
8
0
0
POLYLINE
8
0
66
1
40
0.006000
41
0.006000
0
VERTEX
8
0
10
1.001969
20
-0.974485
0
VERTEX
8
0
10
1.001969
20
-1.033389
0
SEQEND
8
0
0
POLYLINE
8
0
66
1
40
0.006000
41
0.006000
0
VERTEX
8
0
10
1.001969
20
-1.053225
0
VERTEX
8
0
10
1.001969
20
-1.101937
0
SEQEND
8
0
0
POLYLINE
8
0
66
1
40
0.006000
41
0.006000
0
VERTEX
8
0
10
1.080968
20
-1.034485
0
VERTEX
8
0
10
1.080968
20
-0.973389
0
SEQEND
8
0
0
TEXT
8
0
10
0.992968
20
-1.053937
40
0.048000
41
1.041667
50
90.000000
1
J2
0
CIRCLE
8
0
10
0.470472
20
-0.480315
40
0.175000
0
POLYLINE
8
0
66
1
40
0.008000
41
0.008000
0
VERTEX
8
0
10
0.320472
20
-0.580315
0
VERTEX
8
0
10
0.295472
20
-0.605315
0
VERTEX
8
0
10
0.345472
20
-0.655315
0
VERTEX
8
0
10
0.370472
20
-0.630315
0
SEQEND
8
0
0
TEXT
8
0
10
0.703472
20
-0.530315
40
0.048000
41
1.041667
50
90.000000
1
Q1
0
POLYLINE
8
0
66
1
40
0.008000
41
0.008000
0
VERTEX
8
0
10
0.941732
20
0.880709
0
VERTEX
8
0
10
0.991732
20
0.880709
0
SEQEND
8
0
0
POLYLINE
8
0
66
1
40
0.008000
41
0.008000
0
VERTEX
8
0
10
1.041732
20
0.830709
0
VERTEX
8
0
10
1.051920
20
0.831668
0
VERTEX
8
0
10
1.061357
20
0.834443
0
VERTEX
8
0
10
1.069857
20
0.838883
0
VERTEX
8
0
10
1.077232
20
0.844834
0
VERTEX
8
0
10
1.083295
20
0.852144
0
VERTEX
8
0
10
1.087857
20
0.860662
0
VERTEX
8
0
10
1.090732
20
0.870234
0
VERTEX
8
0
10
1.091732
20
0.880709
0
SEQEND
8
0
0
POLYLINE
8
0
66
1
40
0.008000
41
0.008000
0
VERTEX
8
0
10
1.041732
20
0.830709
0
VERTEX
8
0
10
1.031258
20
0.831668
0
VERTEX
8
0
10
1.021685
20
0.834443
0
VERTEX
8
0
10
1.013168
20
0.838883
0
VERTEX
8
0
10
1.005857
20
0.844834
0
VERTEX
8
0
10
0.999906
20
0.852144
0
VERTEX
8
0
10
0.995467
20
0.860662
0
VERTEX
8
0
10
0.992691
20
0.870234
0
VERTEX
8
0
10
0.991732
20
0.880709
0
SEQEND
8
0
0
POLYLINE
8
0
66
1
40
0.008000
41
0.008000
0
VERTEX
8
0
10
1.091732
20
0.880709
0
VERTEX
8
0
10
1.141732
20
0.880709
0
SEQEND
8
0
0
POLYLINE
8
0
66
1
40
0.008000
41
0.008000
0
VERTEX
8
0
10
0.941732
20
0.080709
0
VERTEX
8
0
10
1.141732
20
0.080709
0
SEQEND
8
0
0
POLYLINE
8
0
66
1
40
0.008000
41
0.008000
0
VERTEX
8
0
10
0.941732
20
0.880709
0
VERTEX
8
0
10
0.941732
20
0.080709
0
SEQEND
8
0
0
POLYLINE
8
0
66
1
40
0.008000
41
0.008000
0
VERTEX
8
0
10
1.141732
20
0.080709
0
VERTEX
8
0
10
1.141732
20
0.880709
0
SEQEND
8
0
0
TEXT
8
0
10
0.966732
20
0.890709
40
0.048000
41
1.041667
1
SW1
0
POLYLINE
8
0
66
1
40
0.008000
41
0.008000
0
VERTEX
8
0
10
0.676378
20
-0.842520
0
VERTEX
8
0
10
0.626378
20
-0.842520
0
SEQEND
8
0
0
POLYLINE
8
0
66
1
40
0.008000
41
0.008000
0
VERTEX
8
0
10
0.426378
20
-0.867520
0
VERTEX
8
0
10
0.626378
20
-0.867520
0
VERTEX
8
0
10
0.626378
20
-0.817520
0
VERTEX
8
0
10
0.426378
20
-0.817520
0
VERTEX
8
0
10
0.426378
20
-0.867520
0
SEQEND
8
0
0
POLYLINE
8
0
66
1
40
0.008000
41
0.008000
0
VERTEX
8
0
10
0.426378
20
-0.842520
0
VERTEX
8
0
10
0.376378
20
-0.842520
0
SEQEND
8
0
0
TEXT
8
0
10
0.476378
20
-0.925520
40
0.048000
41
1.041667
1
R1
0
POLYLINE
8
0
66
1
40
0.008000
41
0.008000
0
VERTEX
8
0
10
-0.631890
20
0.804331
0
VERTEX
8
0
10
-0.631890
20
0.754331
0
SEQEND
8
0
0
POLYLINE
8
0
66
1
40
0.008000
41
0.008000
0
VERTEX
8
0
10
-0.656890
20
0.554331
0
VERTEX
8
0
10
-0.606890
20
0.554331
0
VERTEX
8
0
10
-0.606890
20
0.754331
0
VERTEX
8
0
10
-0.656890
20
0.754331
0
VERTEX
8
0
10
-0.656890
20
0.554331
0
SEQEND
8
0
0
POLYLINE
8
0
66
1
40
0.008000
41
0.008000
0
VERTEX
8
0
10
-0.631890
20
0.554331
0
VERTEX
8
0
10
-0.631890
20
0.504331
0
SEQEND
8
0
0
TEXT
8
0
10
-0.548890
20
0.604331
40
0.048000
41
1.041667
50
90.000000
1
R2
0
POLYLINE
8
0
66
1
40
0.008000
41
0.008000
0
VERTEX
8
0
10
-0.533465
20
0.177559
0
VERTEX
8
0
10
-0.533465
20
0.227559
0
SEQEND
8
0
0
POLYLINE
8
0
66
1
40
0.008000
41
0.008000
0
VERTEX
8
0
10
-0.558465
20
0.227559
0
VERTEX
8
0
10
-0.508465
20
0.227559
0
VERTEX
8
0
10
-0.508465
20
0.427559
0
VERTEX
8
0
10
-0.558465
20
0.427559
0
VERTEX
8
0
10
-0.558465
20
0.227559
0
SEQEND
8
0
0
POLYLINE
8
0
66
1
40
0.008000
41
0.008000
0
VERTEX
8
0
10
-0.533465
20
0.427559
0
VERTEX
8
0
10
-0.533465
20
0.477559
0
SEQEND
8
0
0
TEXT
8
0
10
-0.568465
20
0.277559
40
0.048000
41
1.041667
50
90.000000
1
R3
0
POLYLINE
8
0
66
1
40
0.008000
41
0.008000
0
VERTEX
8
0
10
-0.769685
20
0.599606
0
VERTEX
8
0
10
-0.769685
20
0.549606
0
SEQEND
8
0
0
POLYLINE
8
0
66
1
40
0.008000
41
0.008000
0
VERTEX
8
0
10
-0.794685
20
0.349606
0
VERTEX
8
0
10
-0.744685
20
0.349606
0
VERTEX
8
0
10
-0.744685
20
0.549606
0
VERTEX
8
0
10
-0.794685
20
0.549606
0
VERTEX
8
0
10
-0.794685
20
0.349606
0
SEQEND
8
0
0
POLYLINE
8
0
66
1
40
0.008000
41
0.008000
0
VERTEX
8
0
10
-0.769685
20
0.349606
0
VERTEX
8
0
10
-0.769685
20
0.299606
0
SEQEND
8
0
0
TEXT
8
0
10
-0.686685
20
0.399606
40
0.048000
41
1.041667
50
90.000000
1
R4
0
POLYLINE
8
0
66
1
40
0.008000
41
0.008000
0
VERTEX
8
0
10
0.860236
20
-0.696457
0
VERTEX
8
0
10
0.860236
20
-0.646457
0
SEQEND
8
0
0
POLYLINE
8
0
66
1
40
0.008000
41
0.008000
0
VERTEX
8
0
10
0.835236
20
-0.646457
0
VERTEX
8
0
10
0.885236
20
-0.646457
0
VERTEX
8
0
10
0.885236
20
-0.446457
0
VERTEX
8
0
10
0.835236
20
-0.446457
0
VERTEX
8
0
10
0.835236
20
-0.646457
0
SEQEND
8
0
0
POLYLINE
8
0
66
1
40
0.008000
41
0.008000
0
VERTEX
8
0
10
0.860236
20
-0.446457
0
VERTEX
8
0
10
0.860236
20
-0.396457
0
SEQEND
8
0
0
TEXT
8
0
10
0.825236
20
-0.596457
40
0.048000
41
1.041667
50
90.000000
1
R5
0
POLYLINE
8
0
66
1
40
0.008000
41
0.008000
0
VERTEX
8
0
10
0.402362
20
0.842520
0
VERTEX
8
0
10
0.452362
20
0.842520
0
SEQEND
8
0
0
POLYLINE
8
0
66
1
40
0.008000
41
0.008000
0
VERTEX
8
0
10
0.452362
20
0.817520
0
VERTEX
8
0
10
0.652362
20
0.817520
0
VERTEX
8
0
10
0.652362
20
0.867520
0
VERTEX
8
0
10
0.452362
20
0.867520
0
VERTEX
8
0
10
0.452362
20
0.817520
0
SEQEND
8
0
0
POLYLINE
8
0
66
1
40
0.008000
41
0.008000
0
VERTEX
8
0
10
0.652362
20
0.842520
0
VERTEX
8
0
10
0.702362
20
0.842520
0
SEQEND
8
0
0
TEXT
8
0
10
0.502362
20
0.877520
40
0.048000
41
1.041667
1
R6
0
POLYLINE
8
0
66
1
40
0.008000
41
0.008000
0
VERTEX
8
0
10
0.407874
20
0.716535
0
VERTEX
8
0
10
0.457874
20
0.716535
0
SEQEND
8
0
0
POLYLINE
8
0
66
1
40
0.008000
41
0.008000
0
VERTEX
8
0
10
0.457874
20
0.691535
0
VERTEX
8
0
10
0.657874
20
0.691535
0
VERTEX
8
0
10
0.657874
20
0.741535
0
VERTEX
8
0
10
0.457874
20
0.741535
0
VERTEX
8
0
10
0.457874
20
0.691535
0
SEQEND
8
0
0
POLYLINE
8
0
66
1
40
0.008000
41
0.008000
0
VERTEX
8
0
10
0.657874
20
0.716535
0
VERTEX
8
0
10
0.707874
20
0.716535
0
SEQEND
8
0
0
TEXT
8
0
10
0.507874
20
0.751535
40
0.048000
41
1.041667
1
R7
0
POLYLINE
8
0
66
1
40
0.008000
41
0.008000
0
VERTEX
8
0
10
0.411811
20
0.590551
0
VERTEX
8
0
10
0.461811
20
0.590551
0
SEQEND
8
0
0
POLYLINE
8
0
66
1
40
0.008000
41
0.008000
0
VERTEX
8
0
10
0.461811
20
0.565551
0
VERTEX
8
0
10
0.661811
20
0.565551
0
VERTEX
8
0
10
0.661811
20
0.615551
0
VERTEX
8
0
10
0.461811
20
0.615551
0
VERTEX
8
0
10
0.461811
20
0.565551
0
SEQEND
8
0
0
POLYLINE
8
0
66
1
40
0.008000
41
0.008000
0
VERTEX
8
0
10
0.661811
20
0.590551
0
VERTEX
8
0
10
0.711811
20
0.590551
0
SEQEND
8
0
0
TEXT
8
0
10
0.511811
20
0.625551
40
0.048000
41
1.041667
1
R8
0
POLYLINE
8
0
66
1
40
0.008000
41
0.008000
0
VERTEX
8
0
10
0.414173
20
0.464567
0
VERTEX
8
0
10
0.464173
20
0.464567
0
SEQEND
8
0
0
POLYLINE
8
0
66
1
40
0.008000
41
0.008000
0
VERTEX
8
0
10
0.464173
20
0.439567
0
VERTEX
8
0
10
0.664173
20
0.439567
0
VERTEX
8
0
10
0.664173
20
0.489567
0
VERTEX
8
0
10
0.464173
20
0.489567
0
VERTEX
8
0
10
0.464173
20
0.439567
0
SEQEND
8
0
0
POLYLINE
8
0
66
1
40
0.008000
41
0.008000
0
VERTEX
8
0
10
0.664173
20
0.464567
0
VERTEX
8
0
10
0.714173
20
0.464567
0
SEQEND
8
0
0
TEXT
8
0
10
0.514173
20
0.499567
40
0.048000
41
1.041667
1
R9
0
POLYLINE
8
0
66
1
40
0.008000
41
0.008000
0
VERTEX
8
0
10
0.414173
20
0.338583
0
VERTEX
8
0
10
0.464173
20
0.338583
0
SEQEND
8
0
0
POLYLINE
8
0
66
1
40
0.008000
41
0.008000
0
VERTEX
8
0
10
0.464173
20
0.313583
0
VERTEX
8
0
10
0.664173
20
0.313583
0
VERTEX
8
0
10
0.664173
20
0.363583
0
VERTEX
8
0
10
0.464173
20
0.363583
0
VERTEX
8
0
10
0.464173
20
0.313583
0
SEQEND
8
0
0
POLYLINE
8
0
66
1
40
0.008000
41
0.008000
0
VERTEX
8
0
10
0.664173
20
0.338583
0
VERTEX
8
0
10
0.714173
20
0.338583
0
SEQEND
8
0
0
TEXT
8
0
10
0.481299
20
0.373583
40
0.048000
41
1.041667
1
R10
0
ENDSEC
0
EOF

